<?xml version="1.0" standalone="no"?>
<!DOCTYPE svg PUBLIC "-//W3C//DTD SVG 1.1//EN" "http://www.w3.org/Graphics/SVG/1.1/DTD/svg11.dtd" >
<svg xmlns="http://www.w3.org/2000/svg">
<metadata>
Created by FontForge 20120731 at Mon Jul 10 11:25:20 2017
 By admin
</metadata>
<defs>
<font id="iconfont" horiz-adv-x="1024" >
  <font-face 
    font-family="iconfont"
    font-weight="500"
    font-stretch="normal"
    units-per-em="1024"
    panose-1="2 0 6 3 0 0 0 0 0 0"
    ascent="896"
    descent="-128"
    x-height="792"
    bbox="-0.5 -128.486 8058.61 897"
    underline-thickness="0"
    underline-position="0"
    unicode-range="U+0078-E650"
  />
<missing-glyph 
 />
    <glyph glyph-name=".notdef" 
 />
    <glyph glyph-name=".notdef" 
 />
    <glyph glyph-name=".null" horiz-adv-x="0" 
 />
    <glyph glyph-name="nonmarkingreturn" horiz-adv-x="341" 
 />
    <glyph glyph-name="x" unicode="x" horiz-adv-x="1001" 
d="M281 543q-27 -1 -53 -1h-83q-18 0 -36.5 -6t-32.5 -18.5t-23 -32t-9 -45.5v-76h912v41q0 16 -0.5 30t-0.5 18q0 13 -5 29t-17 29.5t-31.5 22.5t-49.5 9h-133v-97h-438v97zM955 310v-52q0 -23 0.5 -52t0.5 -58t-10.5 -47.5t-26 -30t-33 -16t-31.5 -4.5q-14 -1 -29.5 -0.5
t-29.5 0.5h-32l-45 128h-439l-44 -128h-29h-34q-20 0 -45 1q-25 0 -41 9.5t-25.5 23t-13.5 29.5t-4 30v167h911zM163 247q-12 0 -21 -8.5t-9 -21.5t9 -21.5t21 -8.5q13 0 22 8.5t9 21.5t-9 21.5t-22 8.5zM316 123q-8 -26 -14 -48q-5 -19 -10.5 -37t-7.5 -25t-3 -15t1 -14.5
t9.5 -10.5t21.5 -4h37h67h81h80h64h36q23 0 34 12t2 38q-5 13 -9.5 30.5t-9.5 34.5q-5 19 -11 39h-368zM336 498v228q0 11 2.5 23t10 21.5t20.5 15.5t34 6h188q31 0 51.5 -14.5t20.5 -52.5v-227h-327z" />
    <glyph glyph-name="wo" unicode="&#xe602;" 
d="M400 799q6 4 17 9.5t44 14.5t65.5 9.5t76 -14.5t80.5 -49q46 -42 64.5 -103t11 -116.5t-25.5 -100t-40 -64.5q-21 -19 -48.5 -35.5t-67 -28t-79.5 -11t-85 21.5t-84 63q-81 89 -58 221l8 32v0q-2 1 -5.5 3t-11 7.5t-11.5 11.5t-3 13.5t11 14.5h10l40 51q2 1 4.5 2.5
t10.5 -0.5t15 -12q12 -19 12 -26t-12 -25q-7 -12 -15 -48t-8 -82t13 -72q11 -20 27 -40.5t44 -42t59.5 -31.5t74.5 -3t89 36q42 28 63.5 74t22 91.5t-9.5 83.5t-26 54q-1 2 -11.5 13.5t-14 14.5t-15.5 14t-19 14.5t-21 11.5t-25 10t-28.5 5.5t-34.5 2t-38.5 -4.5t-45.5 -10
q-15 -4 -20.5 2t0.5 18zM511 -40q14 -13 48 -19t88 -4.5t89 4t90 7.5q33 3 53.5 11.5t28.5 18t7.5 26t-3.5 26t-11 28.5q-3 6 -4 10q-7 19 -12 66.5t-7 85.5l-1 37q-1 5 -3.5 10.5t-15.5 4.5t-32 -25l-2 -3t-3.5 -3.5t-8 -2t-16.5 -1.5h-112q0 3 0.5 6.5t-1 11t-5 11.5
t-12.5 2.5t-23 -11.5q-17 -12 -25 -19.5t-11 -14t3.5 -10t22.5 -5.5h193q29 -129 30 -160q1 -5 3.5 -15.5t2.5 -15.5t-7 -13t-23.5 -11.5t-50.5 -6.5t-85 -3q-29 0 -44 0.5t-34.5 2.5t-28 5.5t-20.5 10.5t-16 17t-9.5 26t-8 35.5t-3.5 47.5q-1 8 -6 12t-10 3l-5 -1
q-19 4 -20 -14q-1 -28 -3 -47.5t-7.5 -35.5t-10 -26t-16 -17t-20 -10.5t-28.5 -5.5t-34.5 -2.5t-44.5 -0.5q-50 0 -84.5 3t-51 6.5t-23.5 11.5t-7 13t2.5 15.5t2.5 15.5q1 14 8.5 53.5t15 73l7.5 33.5h193q15 2 21.5 5.5t4 10t-11 14t-25.5 19.5q-23 15 -32 10.5t-8 -17.5
v-13h-112q-11 0 -17 1.5t-7.5 1.5t-3.5 3.5l-2 3.5q-37 46 -50 15l-1 -5q-4 -146 -20 -189q-2 -4 -4 -10q-8 -19 -11 -28.5t-3.5 -26t7.5 -26t28 -18t54 -11.5q55 -5 90 -7.5t88.5 -4t88 4.5t47.5 19v0z" />
    <glyph glyph-name="sousuo" unicode="&#xe604;" 
d="M977 803v-745l-69 -46v70h-182q42 -97 112 -202l-28 -8q-102 107 -180 210h-560v-70l-70 -31v915l70 -70h838q-2 7 4.5 21.5t13.5 24.5l7 11h26q3 -7 19 -20t31 -22l15 -10v-26zM908 780h-838v-652h509l-44 19l145 74q10 -43 28 -93h200v652zM629 324l-48 -20v59h-188
v-52l-44 -20q3 73 3 159t-3 166l48 -29h181l23 29l51 -36l-26 -23q0 -181 3 -233zM581 567h-188v-184h188v184z" />
    <glyph glyph-name="dingyue" unicode="&#xe605;" horiz-adv-x="1201" 
d="M294 313l-26 78h778l65 52l91 -104h-779q-36 0 -129 -26zM294 754l-26 78h778l65 52l91 -104h-779q-36 0 -129 -26zM41.5 -88q-41.5 10 -41.5 67.5t48.5 17.5t155.5 -72l-3 -14q-118 -9 -159.5 1zM41.5 353q-41.5 10 -41.5 67.5t48.5 17.5t155.5 -72l-3 -14
q-118 -9 -159.5 1zM41.5 794q-41.5 10 -41.5 67.5t48.5 17.5t155.5 -72l-3 -14q-118 -9 -159.5 1zM1111 2l91 -104h-779q-36 0 -129 -26l-26 78h778z" />
    <glyph glyph-name="shouye" unicode="&#xe606;" horiz-adv-x="1101" 
d="M442 16h-205l-7 239l25 23l-73 31q1 -21 5 -49.5t4 -38.5v-273l-31 -22l44 -45l33 90h593l-2 -99l47 22v77v273l26 30l-76 35q0 -17 2.5 -46.5t2.5 -41.5v-205h-388v0zM549 653q87 -122 158 -178q140 -113 319 -146l-58 15q2 0 15 -2q38 -5 62 -6q3 45 55 78l-7 12
q-88 -33 -190.5 -5.5t-194.5 98.5q-12 10 -48.5 35t-58 46t-49.5 59q2 -3 -3 -6zM576 808l40 17l-77 71q-106 -319 -320 -565q105 139 98 139q-1 0 -45 -35q-11 -8 -20 -14q-97 -70 -252 -104l3 -11q146 10 246.5 64.5t165.5 142.5t128 229q8 13 10 17.5t3 6.5t1.5 3.5
t5 11.5t13.5 27zM806 742q-27 -135 -130 -299l23 -7q101 113 171 215l56 26z" />
    <glyph glyph-name="wo1" unicode="&#xe607;" 
d="M872 -115q-64 -6 -104 -8.5t-101 -4t-100.5 5t-54.5 21.5q-15 -15 -54.5 -21.5t-100.5 -5t-101.5 4t-103.5 8.5q-27 3 -47 8.5t-31.5 12.5t-17 18t-7 19.5t2 22.5t6 22t9.5 23q3 8 4 11q9 22 14.5 78.5t7 93t1.5 45.5q1 5 4 11.5t18 5t36 -27.5q1 -1 3 -4.5t4 -4t9 -2
t19 -1.5h128q-1 3 -1 7t1.5 12.5t5.5 13t14.5 3t25.5 -12.5q19 -14 29 -22.5t13 -16t-4.5 -11.5t-25.5 -7h-221q-33 -147 -35 -183q0 -5 -3 -17t-3 -18t8 -14.5t27.5 -13t58.5 -8t97 -3.5q27 0 41 0.5t34 1.5t29.5 3t22.5 6.5t19 10.5t14 15.5t11 21t7 27.5t6 35t3 45
q0 9 6 13.5t11 3.5l6 -1q2 1 6 1.5t10.5 -3.5t6.5 -14q2 -26 4 -45t6 -35t7 -27.5t11 -21t14 -15.5t19 -10.5t22.5 -6.5t29.5 -3t34 -1.5t41 -0.5q58 0 97 3.5t58 8t27 13t8 14.5t-3 18t-3 17q-1 16 -9.5 61.5t-17 84t-8.5 37.5h-221q-18 3 -25.5 7t-4.5 11.5t13 16t29 22.5
q26 17 36.5 12t10.5 -20l-1 -15h128q12 0 19 1.5t9 2t4 4t3 4.5q21 26 35.5 29t18.5 -7l4 -11q4 -168 23 -217q1 -3 4 -11q6 -15 9 -23t6.5 -22t2 -22.5t-7 -19.5t-17 -18t-31.5 -12.5t-47 -8.5zM720 385q-24 -22 -56 -41t-77 -32t-90.5 -12.5t-97 24.5t-95.5 72
q-32 35 -50 78t-20.5 79t0 66.5t7.5 48.5l5 17q-2 1 -6 3.5t-12.5 9t-13 13t-3.5 15.5t12 17h12l46 58q1 1 4.5 3t12.5 -0.5t17 -14.5q14 -21 13.5 -29t-13.5 -29q-9 -14 -17.5 -55t-9 -93.5t15.5 -82.5q12 -23 30 -46t50 -47.5t68 -36t85.5 -4t101.5 41.5q49 31 73.5 84
t25 104.5t-11 95t-29.5 63.5q-2 1 -14 14t-16 17t-17.5 16t-21 16.5t-23.5 13.5t-29 11.5t-33 6t-39.5 2.5t-44 -5t-51.5 -12q-18 -5 -24 2t1 22q7 4 19.5 10t50.5 16.5t74.5 11t86.5 -16.5t92 -56q43 -39 65 -92.5t22.5 -105.5t-10 -101.5t-28.5 -86t-37 -53.5z" />
    <glyph glyph-name="sousuo1" unicode="&#xe60b;" horiz-adv-x="1059" 
d="M992 -128q-27 29 -54 57l-174 174l-10 11l-113 112q-34 -27 -75 -49t-97.5 -36t-112 -11t-119 33.5t-117.5 89.5q-41 46 -64 100.5t-26.5 101t0 85.5t9.5 62.5t7 22.5q-3 1 -8 4t-16 11.5t-17 17t-4.5 20t15.5 21.5h15l59 74q3 3 7 5t15.5 -1t22.5 -18q13 -18 15.5 -29
t-0.5 -19t-15 -27q-12 -18 -23.5 -71t-11.5 -120.5t20 -105.5q16 -30 39.5 -59.5t64.5 -61t87 -46.5t110 -5t130 53q50 33 81 84.5t39 104.5t4.5 105.5t-17.5 92.5t-33 59q-2 2 -17.5 19t-20.5 22t-22 20.5t-27.5 21t-31 17t-37 14.5t-42 8t-50.5 3t-57 -6.5t-66 -14.5
q-23 -7 -30.5 2t0.5 28q5 3 13.5 7t35 14.5t54 17t68 8.5t78.5 -5t82.5 -28.5t84.5 -58.5q58 -53 86 -125t26.5 -143.5t-17 -133.5t-42.5 -110l117 -117l20 -20l143 -163q4 -4 38 3.5t48 -3.5z" />
    <glyph glyph-name="shipin-bofang" unicode="&#xe60c;" 
d="M640 -128v1024h192v-1024h-192zM192 896h192v-1024h-192v1024z" />
    <glyph glyph-name="shipin-zuida" unicode="&#xe60d;" 
d="M956 -128h-306v68h258l-280 280l48 48l280 -280v258h68v-374h-68zM338 511l-272 272v-250h-66v363h363v-66h-250l272 -272z" />
    <glyph glyph-name="pinglun-hei" unicode="&#xe60e;" 
d="M949 811v-726l-85 -42v64h-397v-1q-80 -111 -196 -234l-26 8q79 120 119 227h-247v-64l-85 -28v881l85 -64h768q-1 6 5 19t12 23l7 10h24q2 -6 16.5 -18t28.5 -21l14 -9v-23zM864 789h-747v-640h262q9 32 14 56l109 -56h362v640zM463 289q0 2 8.5 21.5t8.5 30.5v363
l68 -52l-26 -26v-368zM672 704l72 -52l-29 -33v-363l-56 33q1 4 4.5 14.5t6 20t2.5 17.5v363zM331 256l-64 33q1 4 10.5 19.5t9.5 27.5v367l65 -51l-21 -33v-363z" />
    <glyph glyph-name="fenxiang-bai" unicode="&#xe60f;" horiz-adv-x="1086" 
d="M1058 512v-563l-95 -55l9 55h-886v-33l-86 -44v741q20 -4 41.5 -23t33.5 -36l11 -17l228 1v-51l-228 6v-493h886v487h-229v51h229v51q0 11 7 17t14 7h7q12 -13 33.5 -26.5t37.5 -20.5l15 -8v-32zM728 656l-156 86v-511l70 -75l-156 -79v665q-17 -32 -59 -64t-81 -32
q-20 -1 -33.5 2t-19.5 7.5t-7.5 11t-0.5 11.5t4 11t4.5 8t2.5 3v0l247 196q194 -174 222 -218q11 -20 3 -25t-24 -1z" />
    <glyph glyph-name="fanhui-bai" unicode="&#xe610;" 
d="M775 -21l94 -12v-24h-27l-121 -71h-81q-26 66 -85.5 142.5t-125.5 138.5t-129.5 115t-103.5 83t-41 30q2 0 8 1l-8 2q16 11 43 31.5t99.5 80.5t133 118.5t122 137t87.5 144.5h81l121 -71h27v-24l-94 -12q-10 -8 -26 -22.5t-64.5 -56t-93.5 -79t-102.5 -84t-102.5 -80
t-83 -57.5t-54 -26q-10 -1 -21 -2q12 -1 21 -1q67 -7 470 -354q55 -47 56 -48z" />
    <glyph glyph-name="sousuo-xuanzhong" unicode="&#xe611;" 
d="M977 803v-745l-69 -46v70h-182q42 -97 112 -202l-28 -8q-102 107 -180 210h-560v-70l-70 -31v915l70 -70h838q-2 7 4.5 21.5t13.5 24.5l7 11h26q3 -7 19 -20t31 -22l15 -10v-26zM908 780h-838v-652h509l-44 19l145 74q10 -43 28 -93h200v652zM629 324l-48 -20v59h-188
v-52l-44 -20q3 73 3 159t-3 166l48 -29h181l23 29l51 -36l-26 -23q0 -181 3 -233zM581 567h-188v-184h188v184zM680 221q33 -153 158 -341l-28 -8q-122 129 -207 246l-68 29z" />
    <glyph glyph-name="wo-xuanzhong" unicode="&#xe612;" 
d="M512 -101q15 -15 54.5 -21.5t100.5 -5t101 4t104 8.5q27 3 47 8.5t31.5 12.5t17 18t7 19.5t-2 22.5t-6.5 22t-9 23q-3 8 -4 11q-9 22 -14.5 78.5t-7 92.5t-1.5 46q-2 5 -5 11.5t-17.5 5t-35.5 -27.5q-1 -1 -3 -4.5t-4 -4t-9 -2t-19 -1.5h-128q1 3 1 7t-1.5 12.5t-5.5 13
t-14.5 3t-25.5 -12.5q-20 -14 -29.5 -22.5t-12.5 -16t4.5 -11.5t25.5 -7h221q33 -147 34 -183q1 -5 4 -17t3 -18t-8 -14.5t-27 -13t-58 -8t-97 -3.5q-27 0 -41 0.5t-34 1.5t-29.5 3t-22.5 6.5t-19 10.5t-14 15.5t-11 21t-7.5 27.5t-6 35t-3.5 45q-1 10 -6.5 14t-11.5 3
l-5 -1q-1 0 -6 1t-11 -3.5t-6 -13.5q-2 -26 -3.5 -45t-5.5 -35t-7 -27.5t-11 -21t-14 -15.5t-19.5 -10.5t-22.5 -6.5t-29 -3t-34 -1.5t-41 -0.5q-59 0 -97.5 3.5t-58 8t-27.5 13t-8 14.5t3 18t3 17q1 16 10 63t16.5 80.5t8.5 39.5h221q18 3 25.5 7t4.5 11.5t-13 16t-29 22.5
q-26 17 -36.5 12t-10.5 -20l1 -15h-128q-12 0 -19 1.5t-9 2t-4.5 4t-2.5 4.5q-41 51 -56 17q-2 -5 -2 -6q-4 -168 -23 -217q-1 -3 -5 -11q-6 -15 -8.5 -23t-6 -22t-2 -22.5t7 -19.5t17 -18t31.5 -12.5t47 -8.5q63 -6 103 -8.5t101.5 -4t101 5t54.5 21.5v0zM385 858
q7 5 19.5 11t50 16.5t74.5 11t87 -16.5t92 -56q43 -39 65 -93t22.5 -105.5t-10 -101t-28.5 -86t-37 -53.5q-24 -22 -56 -41t-77 -32t-90.5 -12.5t-97 24.5t-95.5 72q-92 100 -68 248l10 41q-2 1 -6 3.5t-12.5 9t-13 13t-3.5 15.5t12 17h11l47 58q1 1 4.5 3t12.5 -0.5
t17 -14.5q14 -21 13.5 -29.5t-13.5 -28.5q-9 -14 -17.5 -55t-9 -93.5t15.5 -82.5q12 -23 30 -46t50 -47.5t68 -36t85.5 -4t101.5 41.5q48 31 73 84t25 104.5t-11 95t-29 62.5q-2 2 -14 15t-16 17t-17.5 16t-21 16.5t-24 13.5t-29 11.5t-32.5 6t-39.5 2t-44 -5t-51.5 -11.5
q-18 -5 -24 2t1 21z" />
    <glyph glyph-name="shouye1" unicode="&#xe613;" horiz-adv-x="1101" 
d="M442 16h-205l-7 239l25 23l-73 31q1 -21 5 -49.5t4 -38.5v-273l-31 -22l44 -45l33 90h593l-2 -99l47 22v77v273l26 30l-76 35q0 -17 2.5 -46.5t2.5 -41.5v-205h-388zM549 653q87 -122 158 -178q29 -24 74.5 -51.5t80.5 -43.5q83 -37 183 -44q3 45 55 78l-7 12
q-88 -33 -190.5 -5.5t-194.5 98.5q-12 10 -48.5 35t-58 46t-49.5 59q2 -3 -3 -6zM576 808l40 17l-77 71q-19 -59 -53.5 -139t-64.5 -134q-72 -133 -169 -202.5t-252 -103.5l3 -11q146 10 246.5 64.5t165.5 142.5t128 229q8 14 10 18l3 6t1.5 3.5t5 11.5t13.5 27zM806 742
q-27 -135 -130 -299l23 -7q101 113 171 215l56 26z" />
    <glyph glyph-name="dingyue-xuanzhong" unicode="&#xe614;" horiz-adv-x="1201" 
d="M294 754l-26 78h778l65 52l91 -104h-779q-36 0 -129 -26zM41.5 -88q-41.5 10 -41.5 67.5t48.5 17.5t155.5 -72l-3 -14q-118 -9 -159.5 1zM41.5 353q-41.5 10 -41.5 67.5t48.5 17.5t155.5 -72l-3 -14q-118 -9 -159.5 1zM41.5 794q-41.5 10 -41.5 67.5t48.5 17.5t155.5 -72
l-3 -14q-118 -9 -159.5 1zM1111 2l91 -104h-779q-36 0 -129 -26l-26 78h778zM294 313q93 26 129 26h779l-91 104l-65 -52h-778z" />
    <glyph glyph-name="wodedingdan" unicode="&#xe615;" 
d="M396 873h232q86 0 148 -62l163 -163q62 -62 62 -148v-232q0 -86 -62 -148l-163 -163q-62 -62 -148 -62h-232q-86 0 -148 62l-163 163q-62 62 -62 148v232q0 86 62 148l163 163q62 62 148 62zM396 896q-96 0 -164 -68l-164 -164q-68 -68 -68 -164v-232q0 -96 68 -164
l164 -164q68 -68 164 -68h232q96 0 164 68l164 164q68 68 68 164v232q0 96 -68 164l-164 164q-68 68 -164 68h-232zM791 570l-3 -420l-43 -22v47h-466v-47l-46 -23v535l46 -47h466q-1 3 1 9t6 12t7.5 12t5.5 10l3 4q1 -4 13 -13.5t23 -16.5l11 -8v-15zM745 570h-466v-372
h466v372zM372 524l47 -24l-23 -23v-233l-47 9q1 4 12 16.5t11 21.5v233zM549 485q14 -7 7.5 -23t-19.5 0t-48 35l2 4q44 -9 58 -16zM549 391.5q14 -6.5 7.5 -22.5t-19.5 0t-48 34l2 4q44 -9 58 -15.5zM549 299q14 -7 7.5 -23t-19.5 0t-48 35l2 3q44 -8 58 -15zM628 524
l47 -24l-23 -23v-233l-47 9q1 4 12 16.5t11 21.5v233z" />
    <glyph glyph-name="fenxiaoxitong" unicode="&#xe616;" 
d="M435 654q-5 -2 -13.5 -5.5t-30 -18t-38 -32t-30 -49t-12.5 -67.5q1 -46 26 -84.5t59.5 -60t68.5 -32.5t56 -8q21 2 44 10t49.5 24.5t45.5 39t30 57.5t7 76q-3 30 -16.5 56.5t-30 42t-32.5 27t-27 16.5l-11 5q1 1 1.5 4t1 10t-1 11.5t-6 7.5t-13.5 1l-5 -5l-48 1
q-2 0 -4 -1t-5 -6.5t-1 -14.5q4 -14 8.5 -17.5t20.5 -5.5q19 -3 63 -31.5t55 -57.5q6 -16 9.5 -34t1.5 -43.5t-12 -48t-35.5 -43.5t-64.5 -33q-39 -10 -74 -0.5t-61.5 30.5t-42.5 44t-17 40q0 1 -1.5 12.5t-1.5 15v15t1.5 17t4 17t7 19t11 18.5t16 20t22 19.5t27.5 20.5
q22 14 -1 21zM396 873h232q86 0 148 -62l163 -163q62 -62 62 -148v-232q0 -86 -62 -148l-163 -163q-62 -62 -148 -62h-232q-86 0 -148 62l-163 163q-62 62 -62 148v232q0 86 62 148l163 163q62 62 148 62zM396 896q-96 0 -164 -68l-164 -164q-68 -68 -68 -164v-232
q0 -96 68 -164l164 -164q68 -68 164 -68h232q96 0 164 68l164 164q68 68 68 164v232q0 96 -68 164l-164 164q-68 68 -164 68h-232zM749 152h-238q-31 -36 -65 -71l-14 5q22 32 40 66h-309v24h322q21 43 29 82l76 -37l-35 -15q-3 -5 -7.5 -10t-9.5 -11t-8 -9h219q2 0 6 1
t13.5 6.5t17.5 12.5t15 20.5t9 30.5h98q-2 -4 -5 -10.5t-16 -23t-29 -28.5t-45.5 -22.5t-63.5 -10.5z" />
    <glyph glyph-name="wodexiaofei" unicode="&#xe617;" 
d="M791 570l-3 -420l-43 -22v47h-466v-47l-46 -23v535l46 -47h466q-1 3 1 9t6 12t7.5 12t5.5 10l3 4q1 -4 13 -13.5t23 -16.5l11 -8v-15zM745 455h-259v-75l3 -43h256v118zM745 315h-258l-22 -24l-17 28l17 18v117l-17 8l17 38l24 -23h256v93h-466v-372h466v117zM581 396
l-34 -35l-35 35l35 35zM396 873h232q86 0 148 -62l163 -163q62 -62 62 -148v-232q0 -86 -62 -148l-163 -163q-62 -62 -148 -62h-232q-86 0 -148 62l-163 163q-62 62 -62 148v232q0 86 62 148l163 163q62 62 148 62zM396 896q-96 0 -164 -68l-164 -164q-68 -68 -68 -164v-232
q0 -96 68 -164l164 -164q68 -68 164 -68h232q96 0 164 68l164 164q68 68 68 164v232q0 96 -68 164l-164 164q-68 68 -164 68h-232z" />
    <glyph glyph-name="go" unicode="&#xe618;" 
d="M265 -128v0q11 0 19 8l485 470q16 15 16 36.5t-16 36.5l-481 466q-8 8 -19 8t-19 -7.5t-8 -18.5t8 -18l482 -467l-485 -470q-8 -7 -8 -18t7.5 -18.5t18.5 -7.5v0z" />
    <glyph glyph-name="yi" unicode="&#xe619;" 
d="M377 478v-313h-106v-29h494v29h-108v313h-280zM407 241h220v-76h-220v76zM407 344h220v-75h-220v75zM407 449h220v-77h-220v77zM533 574q-11 31 -25 60l-32 -5q14 -24 26 -55h-208v-108h30v80h381v-80h30v108h-202zM512 -128q-139 0 -257 68.5t-186.5 186.5t-68.5 257
t68.5 257t186.5 186.5t257 68.5t257 -68.5t186.5 -186.5t68.5 -257t-68.5 -257t-186.5 -186.5t-257 -68.5zM512 870q-99 0 -189 -38.5t-155 -103.5t-103.5 -155t-38.5 -189t38.5 -189t103.5 -155t155 -103.5t189 -38.5t189 38.5t155 103.5t103.5 155t38.5 189t-38.5 189
t-103.5 155t-155 103.5t-189 38.5zM512 -51q-89 0 -169.5 34.5t-138.5 92.5t-92.5 138.5t-34.5 169.5t34.5 169.5t92.5 138.5t138.5 92.5t169.5 34.5t169.5 -34.5t138.5 -92.5t92.5 -138.5t34.5 -169.5t-34.5 -169.5t-92.5 -138.5t-138.5 -92.5t-169.5 -34.5zM512 794
q-111 0 -205.5 -55t-149.5 -149.5t-55 -205.5t55 -205.5t149.5 -149.5t205.5 -55t205.5 55t149.5 149.5t55 205.5t-55 205.5t-149.5 149.5t-205.5 55z" />
    <glyph glyph-name="huangli" unicode="&#xe61a;" 
d="M906 -128h-54v53h-35v-53h-610v53h-35v-53h-60v59h54v30h-54v846h54v30h-54v59h60v-53h35v53h610v-53h35v53h60v-59h-54v-30h54v-846h-54v-30h54v-59h-6zM166 890h-48v-47h48v47zM118 -75v-47h48v47h-48zM906 843v47h-48v-47h48zM906 -33v834h-54v36h-41v53h-598v-53h-41
v-36h-54v-834h54v-36h41v-53h598v53h41v36h54zM906 -75h-48v-47h48v47zM876 -98h-734v964h740v-964h-6zM876 860h-728v-952h728v952zM553 600h47l14 14l22 -21h-119v-24h55l11 9l14 -14l-9 -5q0 -60 1 -75l-15 -7v10h-127v-7l-14 -6q1 55 0 103l14 -8h56v24h-84
q-14 0 -26 -3l-9 10h82v33h-23q-14 0 -25 -4l-10 10h58q0 27 -2 37l24 -12l-9 -7v-18h60q0 22 -1 36l24 -12l-9 -7v-17h33l12 13l20 -19h-65v-33zM517 493h57v31h-57v-31zM517 530h57v32h-57v-32zM447 493h56v31h-56v-31zM447 562v-32h56v32h-56zM539 633h-60v-33h60v33z
M394 428q48 24 81 58l18 -17l-12 -2q-52 -33 -86 -43zM592.5 436.5q-17.5 18.5 -62.5 39.5l1 4q33 -9 57.5 -19t23 -26.5t-19 2zM414 161.5q10 31.5 11 82.5t0 98l16 -9h149l16 15l22 -22h-187q1 -117 -11 -153.5t-39 -65.5l-3 2q16 21 26 52.5zM513 253h-28q-14 0 -26 -3
l-9 9h64q1 22 1 31v30l25 -12l-9 -7l-2 -42h65l8 12l19 -14l-10 -7q-5 -76 -9 -96.5t-12 -31t-26 -14.5q1 8 -7 15t-24 14l1 4q24 -6 36 -6.5t16.5 18.5t9.5 100h-68q-5 -66 -30 -97.5t-65 -48.5l-3 3q40 24 59 54.5t24 88.5z" />
    <glyph glyph-name="ji" unicode="&#xe61b;" 
d="M717 475q-3 -40 -10 -55q-9 -15 -36 -15h-279q-26 1 -26 22v77h312v132h-369v-29h339v-73h-312v-117q0 -41 45 -41h295q37 0 51 17q13 17 19 72zM317 335q-18 -80 -55 -147l26 -16q38 65 59 157zM601 155q28 0 41 14q16 18 21 95l-29 10q-3 -65 -13 -79q-7 -11 -26 -11
h-132q-31 0 -31 33v118h-31v-125q0 -55 53 -55h147zM649 331q59 -72 96 -136l25 17q-31 54 -96 135zM481 333q44 -56 70 -102l25 18q-24 42 -70 99zM512 -128q-139 0 -257 68.5t-186.5 186.5t-68.5 257t68.5 257t186.5 186.5t257 68.5t257 -68.5t186.5 -186.5t68.5 -257
t-68.5 -257t-186.5 -186.5t-257 -68.5zM512 870q-99 0 -189 -38.5t-155 -103.5t-103.5 -155t-38.5 -189t38.5 -189t103.5 -155t155 -103.5t189 -38.5t189 38.5t155 103.5t103.5 155t38.5 189t-38.5 189t-103.5 155t-155 103.5t-189 38.5zM512 -51q-89 0 -169.5 34.5
t-138.5 92.5t-92.5 138.5t-34.5 169.5t34.5 169.5t92.5 138.5t138.5 92.5t169.5 34.5t169.5 -34.5t138.5 -92.5t92.5 -138.5t34.5 -169.5t-34.5 -169.5t-92.5 -138.5t-138.5 -92.5t-169.5 -34.5zM512 794q-111 0 -205.5 -55t-149.5 -149.5t-55 -205.5t55 -205.5
t149.5 -149.5t205.5 -55t205.5 55t149.5 149.5t55 205.5t-55 205.5t-149.5 149.5t-205.5 55z" />
    <glyph glyph-name="biaotizhuangshi-zuo" unicode="&#xe61c;" horiz-adv-x="8058" 
d="M0 406h7213v-44h-7213v44zM7836 404q-15 0 -34.5 3.5t-44.5 13.5t-44.5 24.5t-31.5 40.5t-10 58q2 30 20.5 52t43.5 31t50.5 8.5t45 -15.5t23.5 -41q6 -32 -21 -42t-52 7q-8 5 -14 -9q-12 -24 17 -38q7 -3 15 -5q18 -3 40 -3.5t44 11t40.5 28.5t30 48.5t10.5 72.5
q0 30 -11 57t-28 43t-37.5 28t-38.5 13.5t-31 -2.5q-15 -6 -24.5 -13t-12.5 -11.5t-7.5 -7.5t-10.5 -3q-14 1 -23.5 9.5t-15.5 20t-13 22t-21.5 16.5t-36.5 2q-24 -4 -48 -19t-44 -41.5t-25.5 -63.5t7.5 -85q-4 1 -10.5 2t-25 -0.5t-35.5 -8.5t-38.5 -28t-37.5 -53
q-8 -16 -13 -42.5t-12.5 -46t-27.5 -31.5h3v-44h-133v44h4q9 5 20.5 13.5t29 26t32.5 47.5t24 68q5 26 20.5 48t33 35t34.5 22.5t29 13.5l11 3q-2 5 -3.5 13.5t0 32.5t10.5 46.5t35 50.5t68 49q49 25 94.5 20.5t74 -16.5t33.5 -21q5 2 14 4.5t36 5.5t52 1t57 -14.5t57 -35
t46.5 -66.5t30.5 -104q8 -51 -8.5 -94t-45 -69.5t-63 -46t-61.5 -27.5t-42 -8zM7396 240q16 -32 36.5 -52.5t39.5 -27t35 -9t26 -0.5l9 2q-12 -48 -6.5 -84.5t25.5 -63t43.5 -41.5t47.5 -19q22 -3 36.5 2.5t22 16.5t13 22t15 19.5t23.5 9.5q7 0 11 -3t7 -7.5t12.5 -11.5
t24.5 -13q14 -4 32 -2.5t38 13.5t37 28t28 42.5t12 57.5q0 39 -11.5 70.5t-29.5 48.5t-40.5 28.5t-44 11t-39.5 -2.5q-41 -11 -35 -38q3 -13 12 -15q3 -1 4 1q25 17 52 7t22 -42q-5 -26 -24.5 -41t-45 -15.5t-50.5 8.5t-43 31t-20 52q-3 32 9.5 57.5t32 40t44 24.5t44 13
t34.5 3t42 -7.5t61.5 -27t63 -46t45 -69t8.5 -92.5q-28 -190 -172 -216q-64 -12 -121 8q-5 -9 -33.5 -21t-73.5 -16.5t-94 19.5q-42 21 -68.5 49t-35 50t-10 46.5t0 32.5t3.5 13v0q-5 1 -12.5 3.5t-27 12.5t-35.5 22.5t-32 35t-22 47.5q-7 35 -21.5 64t-29 45.5t-28 27.5
t-22.5 15l-8 4h128q21 -12 29 -31t12.5 -46t13.5 -44z" />
    <glyph glyph-name="biaotizhuangshi-you" unicode="&#xe61d;" horiz-adv-x="8058" 
d="M846 406h7212v-44h-7212v44zM712 362v44h3q-19 12 -27 31.5t-12.5 46t-12.5 42.5q-16 32 -37 53t-39.5 27.5t-35 9t-26.5 0.5l-9 -2q12 48 6.5 85t-25.5 63.5t-43.5 41.5t-47.5 19q-22 4 -36.5 -2t-22 -16.5t-13 -22t-15 -20t-23.5 -9.5q-7 0 -11 3t-7 7.5t-13 11.5
t-24 13q-14 4 -32 2.5t-38 -13.5t-37 -28t-28.5 -43t-11.5 -57q0 -41 11 -72.5t29.5 -48.5t41 -28.5t44 -11t39.5 3.5q41 10 35 37q-3 15 -13 16q-2 0 -4 -1q-24 -17 -51 -7t-22 42q5 26 24.5 41t45 15.5t50.5 -8.5t43 -31t20 -52q3 -32 -9.5 -58t-32 -40.5t-44.5 -24.5
t-44.5 -13.5t-34.5 -3.5t-42 8t-61.5 27.5t-63 46t-44.5 69.5t-9 94q9 60 30 104t47.5 66.5t56.5 35t58 14t51 -0.5t37 -6l14 -4q4 9 33 21t74 16.5t94 -20.5q42 -21 68.5 -48t35 -51.5t11 -45.5t-0.5 -34l-4 -13q5 -1 12.5 -3.5t27 -12.5t36 -22.5t32 -35t21.5 -48.5
q8 -38 23.5 -68t33 -47.5t28.5 -26t21 -13.5h4v-44h-134zM223 361q15 0 34.5 -3t44.5 -13t44.5 -24.5t31.5 -40t10 -57.5q-2 -30 -20.5 -52t-43.5 -31t-50.5 -8.5t-45 15.5t-23.5 41q-6 32 21 42t52 -7q8 -5 14 8q12 23 -15 37q-8 4 -17 7q-18 2 -39.5 2.5t-44 -11
t-41 -28.5t-30 -48.5t-10.5 -70.5q0 -31 11.5 -57.5t28.5 -42.5t37 -28t38 -13.5t31 2.5q15 6 24.5 13t12.5 11.5t7.5 7.5t10.5 3q14 -1 23.5 -9.5t15.5 -19.5t13 -22t21.5 -16.5t36.5 -2.5q24 4 47.5 19t43.5 41.5t25.5 63t-6.5 84.5q4 -1 10.5 -2t25 0.5t35.5 8.5
t38.5 27.5t37.5 52.5q8 17 12.5 44t13 46t29.5 31h128q-3 -1 -9 -4t-21.5 -15t-29 -27.5t-28 -45t-22.5 -64.5q-6 -25 -21.5 -47.5t-32 -35t-36 -22.5t-27 -12.5t-11.5 -3.5v0q1 -5 3 -13t0.5 -32.5t-10.5 -46.5t-35.5 -50t-67.5 -49q-50 -24 -95 -19.5t-73.5 16.5t-33.5 21
q-5 -2 -14 -4.5t-36 -5.5t-52 -1t-57 14t-57 34.5t-46.5 66.5t-30.5 104q-7 50 9 92.5t44.5 69t63 46t61.5 27t42 7.5z" />
    <glyph glyph-name="tuijian" unicode="&#xe61e;" 
d="M781 97q-19 -97 -96 -161t-177 -64q-101 0 -177.5 64t-96.5 162q-100 16 -167 94.5t-67 182.5t66 182t165 95q14 104 93 173.5t184 69.5t183.5 -69t92.5 -172q102 -14 171 -93t69 -185q0 -107 -69.5 -186.5t-173.5 -92.5zM782 641l-10 2l-1 9q-14 99 -89.5 165t-174.5 66
t-174 -66.5t-89 -165.5l-1 -10l-10 -2q-95 -16 -157.5 -91t-62.5 -173q0 -99 63 -173.5t160 -90.5l9 -2l2 -9q18 -93 92 -154t168 -61q95 0 168.5 60.5t92.5 153.5l2 9l9 1q82 11 144 67l-291 103q-1 0 -7 5t-16.5 16t-20.5 23q-9 12 -28 49.5t-31.5 64t-16.5 34.5l12 5
q56 -112 67 -131v105h13v-119q27 -35 35 -41l195 -69l-144 179l10 8l88 -103v65h14v-79l58 -75l80 -32h-8q80 80 80 191q-1 100 -66.5 176t-163.5 90zM406 452q-1 -2 -3 -4.5t-13 -10.5t-29.5 -11.5t-52 -8t-80.5 0.5q0 1 1 3.5t7.5 7t17.5 6.5q8 1 25.5 3t32.5 5t26 9
q22 9 -19 19q-18 4 -40 6v2.5t1 5.5t3.5 6t7.5 4t14 -1q1 0 3 -1q19 -7 40 -6.5t24 16.5q3 13 -3.5 45.5t-4.5 47.5q2 9 8 0q5 -5 12 -14.5t16.5 -38.5t5.5 -58q1 -1 2.5 -3t8 -5.5t15.5 0.5l-0.5 -0.5t-0.5 -2t-0.5 -3t-1.5 -3.5t-2.5 -4t-3.5 -4t-4 -3.5t-5.5 -2.5
t-7.5 -2z" />
    <glyph glyph-name="xinpin" unicode="&#xe61f;" 
d="M670 115q-16 -8 -34 -8q-41 0 -60 31q-14 23 -7 47.5t32 38.5q17 8 35 8q40 0 59 -32q15 -22 7.5 -47.5t-32.5 -37.5zM683 194q-16 24 -47 24q-14 0 -28 -7q-19 -10 -25 -30t6 -37q16 -25 47 -25q14 0 27 7q21 12 25 30q6 19 -5 38zM767 -59q-4 -2 -11.5 -6t-10.5 -6
l-6 -3q-4 -2 -10 -5.5t-10.5 -5.5t-10.5 -3q-94 -39 -196 -39q-135 0 -254 67.5t-189 188.5q-52 90 -64.5 192t12.5 195t86.5 175.5t151.5 134.5q118 69 255 69v-14q-104 0 -197 -42q83 15 166 -20t124 -105q53 -91 25.5 -194t-119.5 -155q-85 -49 -111 -144
q-25 -94 24 -179q41 -71 120.5 -103.5t158.5 -12.5q29 12 58 29q87 50 147 130t84.5 171t12.5 190.5t-62 187.5q-66 115 -182 181.5t-249 66.5v14q135 0 254 -67t189 -188q52 -91 64 -194t-13 -196.5t-86.5 -175.5t-150.5 -134zM411 32q-52 90 -25 190.5t116 151.5
q87 50 113 147t-25 183q-24 42 -66 71.5t-90 42.5t-99 8.5t-93 -28.5l-1 1q-109 -70 -169 -183t-58 -241t67 -241q66 -115 182 -181.5t249 -66.5q66 0 128 16q-70 1 -133 36t-96 94zM322 568q-13 22 -5.5 47.5t30.5 37.5q17 8 33 8q39 0 58 -31q14 -23 6.5 -47.5
t-30.5 -38.5q-17 -8 -34 -8q-38 0 -58 32zM380 550q13 0 27 7q18 10 25 30q6 18 -6 37q-16 25 -46 25q-12 0 -26 -7q-18 -10 -24 -30t5 -38q13 -24 45 -24z" />
    <glyph glyph-name="changxiao" unicode="&#xe620;" horiz-adv-x="1344" 
d="M670 880q215 0 394.5 -122t259.5 -322l-359 -263q-40 82 -117 130t-167 48q-93 0 -169.5 -48.5t-115.5 -130.5l-376 270q79 193 250 312q179 126 400 126zM670 896q-226 0 -408 -127.5t-262 -332.5l403 -289q34 84 109.5 136.5t168 52.5t168 -51.5t109.5 -134.5l384 279
q-78 208 -261.5 337.5t-410.5 129.5zM677.5 -34q32.5 0 55.5 -12t23 -25.5t-23 -25.5t-55.5 -12t-55.5 12t-23 25.5t23 25.5t55.5 12zM677 -19q-39 0 -66 -15.5t-27 -38.5t27.5 -39t65.5 -16q39 0 66.5 15.5t27.5 39t-27.5 39t-66.5 15.5zM991 178l-292 -211h-43l-331 237
l9 15l333 -239v-2l-182 300l15 9l167 -278v342h15v-351l170 298l14 -8l-173 -304l289 208z" />
    <glyph glyph-name="tehui" unicode="&#xe621;" 
d="M939 479q-1 0 -2 -1.5t-2 -1.5t-6 2.5t-15 9.5q-13 9 -24 21.5t-15.5 22t-2 11.5t7 -1t17.5 -11t28 -14q32 -12 26 -30q-3 -9 -12 -8zM83 479q-9 -2 -11 9q-3 17 26 27q15 6 27.5 13.5l17.5 10.5t7 1q2 -3 -1.5 -12t-14 -21t-24.5 -21q-11 -6 -16.5 -8t-6 -1.5l-1.5 1.5
t-3 1zM878 515q8 -6 17 -12t16.5 -10t13.5 -7t10 -4.5l4 -1.5l11 6q-1 0 -12 5.5t-28.5 17t-30.5 23.5v2h-1q-23 20 -23 40t20 36q12 10 18.5 17t14 26t9.5 46q4 50 -34 95q-39 44 -110 70t-162 29l-97 2q-45 2 -97 0q-91 -4 -162 -30.5t-110 -69.5q-38 -44 -34 -96
q2 -26 9.5 -45t14 -26.5t18.5 -17.5q8 -7 11 -10.5t6 -10t3 -15.5q0 -38 -83 -81l-8 -5v0l8 -9l8 3q39 20 63 44v-226l-29 -37q-5 -7 -1 -14q4 -8 11 -8h29l-26 -368l13 -1l7 101q0 -1 1 -3q4 -6 12 -6h672q7 0 11 5l6 -97l13 1l-23 369h29q7 0 11 8q4 7 -1 15l-25 31l9 -16
zM414 882q11 0 22 0.5t20 0.5h18t15.5 -0.5t11 -0.5h7.5h3q44 1 98 -2q100 -4 178 -37q-8 -14 -16 -32.5t-19.5 -64.5t-14.5 -95.5t5.5 -124t34.5 -151.5h-516q26 79 35 154.5t5.5 126t-15 97.5t-19.5 65t-16 32q69 28 163 32zM173 543q10 15 10 31q0 12 -4 21.5t-8 13.5
l-11 11q-11 9 -17 16t-12.5 24t-9.5 40q-4 46 32 86q33 37 87 59q5 -9 12.5 -25.5t20 -61.5t16.5 -95.5t-5 -128t-37 -158.5l7 -3h-29q-7 0 -10 -5l-42 -52v227zM175 -20l49 85v-59h13v81l14 25h520l2 -1v-104h13v82l61 -108h-672v-1zM857 -10l-71 124v130h-13v-120h-522
q-7 0 -11 -7l-3 -5v130h-13v-152l-61 -105l19 257h659zM141 257l32 39l52 66h575l84 -105h-743zM809 370q-5 5 -10 5h-11q-25 78 -34.5 152.5t-5.5 124.5t15.5 94.5t19.5 62.5t15 29q46 -22 72 -54q35 -41 31 -85q-2 -24 -8.5 -41t-12.5 -23.5t-17 -15.5q-8 -7 -12.5 -11.5
t-8 -13.5t-2.5 -21q0 -21 23 -47v-226z" />
    <glyph glyph-name="fenxiaolianjie" unicode="&#xe622;" 
d="M779 384v23h210v-23h-210zM721 474l165 163l17 -17l-165 -163zM512 -128q-82 0 -139.5 59.5t-57.5 143.5v191h23v-191q0 -74 51 -126.5t123 -52.5t123 52.5t51 126.5v192h24v-192q0 -84 -58 -143.5t-140 -59.5zM686 693q0 74 -51 126.5t-123 52.5t-123 -52.5t-51 -126.5
v-191h-23v191q0 84 57.5 143.5t139.5 59.5t140 -59.5t58 -143.5v-192h-24v192zM141 175l137 139l17 -16l-137 -140zM118 624l17 16l160 -163l-17 -16zM244 384h-209v23h209v-23zM879 171l-17 -16l-141 139l17 17z" />
    <glyph glyph-name="erweima" unicode="&#xe623;" horiz-adv-x="1050" 
d="M945 528h-157q-44 0 -74.5 31t-30.5 74v158q0 43 30.5 74t74.5 31h157q44 0 74.5 -31t30.5 -74v-158q0 -43 -30.5 -74t-74.5 -31zM1024 791q0 33 -23 56t-56 23h-157q-33 0 -56 -23t-23 -56v-158q0 -32 23 -55t56 -23h157q33 0 56 23t23 55v158zM263 -128h-158
q-43 0 -74 31t-31 74v158q0 43 31 74t74 31h158v0q43 0 74 -31t31 -74v-158q0 -43 -31 -74t-74 -31zM341 135q0 32 -23 55t-55 23h-158q-33 0 -56 -23t-23 -55v-158q0 -33 23 -56t56 -23h158q32 0 55 23t23 56v158zM263 528h-158q-43 0 -74 31t-31 74v158q0 43 31 74t74 31
h158v0q43 0 74 -31t31 -74v-158q0 -43 -31 -74t-74 -31zM341 791q0 33 -23 56t-55 23h-158q-33 0 -56 -23t-23 -56v-158q0 -32 23 -55t56 -23h158q32 0 55 23t23 55v158zM13 397h1024q6 0 9.5 -4t3.5 -9t-3.5 -9t-9.5 -4h-1024q-5 0 -9 4t-4 9t4 9t9 4zM512 896q5 0 9 -4
t4 -9v-341q0 -6 -4 -10t-9 -4t-9 4t-4 10v341q0 5 4 9t9 4zM512 135h525q6 0 9.5 -4t3.5 -9.5t-3.5 -9.5t-9.5 -4h-525q-5 0 -9 4t-4 9.5t4 9.5t9 4zM512 -102h525q6 0 9.5 -3.5t3.5 -9t-3.5 -9.5t-9.5 -4h-525q-5 0 -9 4t-4 9.5t4 9t9 3.5z" />
    <glyph glyph-name="shangxiajizhanshi" unicode="&#xe624;" horiz-adv-x="1047" 
d="M857 -33h-24q-39 0 -67 28t-28 68v476q0 39 28 67t67 28h24q40 0 68 -28t28 -67v-476q0 -40 -28 -68t-68 -28zM929 539q0 29 -21 50t-51 21h-24q-29 0 -50 -21t-21 -50v-476q0 -30 21 -51t50 -21h24q30 0 51 21t21 51v476zM548 -33h-24q-40 0 -67.5 28t-27.5 68v738
q0 39 27.5 67t67.5 28h24q39 0 67 -28t28 -67v-738q0 -40 -28 -68t-67 -28zM619 801q0 29 -21 50t-50 21h-24q-30 0 -51 -21t-21 -50v-738q0 -30 21 -51t51 -21h24q29 0 50 21t21 51v738zM214 -33h-23q-40 0 -68 28t-28 68v404q0 40 28 68t68 28h23q40 0 68 -28t28 -68v-404
q0 -40 -28 -68t-68 -28zM286 467q0 30 -21 51t-51 21h-23q-30 0 -51 -21t-21 -51v-404q0 -30 21 -51t51 -21h23q30 0 51 21t21 51v404zM12 -104h1024q5 0 8.5 -3.5t3.5 -8.5t-3.5 -8.5t-8.5 -3.5h-1024q-5 0 -8.5 3.5t-3.5 8.5t3.5 8.5t8.5 3.5z" />
    <glyph glyph-name="fenxiangjiangli" unicode="&#xe625;" 
d="M987 521v25h25v-25h-25zM912 421h25v-449h-25v449zM537 -103h300v-25h-650v25h325v524h-400v25h400v175h-400v25h100h50h525q1 -1 25 0h100v-25h-375v-175h375v-25h-375v-524zM87 -28v449h25v-449h-25zM12 546h25v-25h-25v25zM912 621v25q41 0 70.5 -29t29.5 -71h-25
q0 31 -22 53t-53 22zM37 546h-25q0 42 29.5 71t70.5 29v-25q-31 0 -53 -22t-22 -53zM87 -28h25q0 -31 22 -53t53 -22v-25q-41 0 -70.5 29.5t-29.5 70.5zM12 521h25q0 -31 22 -53t53 -22v-25q-41 0 -70.5 29.5t-29.5 70.5zM912 -28h25q0 -41 -29.5 -70.5t-70.5 -29.5v25
q31 0 53 22t22 53zM987 521h25q0 -41 -29.5 -70.5t-70.5 -29.5v25v0q31 0 53 22t22 53zM262 871q27 0 87.5 -43t111.5 -98t51 -84h-200q-7 2 -18.5 6.5t-42 17.5t-53.5 26.5t-42 34t-19 40.5q0 39 41 69.5t84 30.5zM262 896q-53 0 -101.5 -37.5t-48.5 -87.5q0 -24 17.5 -47
t40.5 -39t53.5 -30.5t48 -21t33.5 -11.5l3 -1h229v25q0 36 -54 97t-120.5 107t-100.5 46zM787 871q43 0 84 -30.5t41 -69.5q0 -20 -18 -40t-44 -34.5t-51.5 -26.5t-43.5 -18l-18 -6h-200q0 29 51 84t111.5 98t87.5 43zM787 896q-34 0 -100.5 -46t-120.5 -107t-54 -97v-25
h229l3 1q16 5 33.5 11.5t48 21t53.5 30.5t40.5 39t17.5 47q0 50 -48.5 87.5t-101.5 37.5z" />
    <glyph glyph-name="yaoqingma" unicode="&#xe626;" 
d="M512 871q41 0 70.5 -29.5t29.5 -70.5v-200q0 -41 -29.5 -70.5t-70.5 -29.5t-70.5 29.5t-29.5 70.5v200q0 41 29.5 70.5t70.5 29.5zM512 896v0q-52 0 -88.5 -36.5t-36.5 -88.5v-200q0 -51 36.5 -88t88.5 -37t88.5 37t36.5 88v200q0 52 -36.5 88.5t-88.5 36.5zM724 272
h-449q-5 0 -9 3.5t-4 8.5t4 9t9 4h449q5 0 9 -4t4 -9t-4 -8.5t-9 -3.5zM275 122h449q5 0 9 -4t4 -9t-4 -8.5t-9 -3.5h-449q-5 0 -9 3.5t-4 8.5t4 9t9 4zM912 671h-299l-1 25h300q41 0 70.5 -29t29.5 -71v-624q0 -41 -29.5 -70.5t-70.5 -29.5h-800q-41 0 -70.5 29.5
t-29.5 70.5v624q0 42 29.5 71t70.5 29h300v-25h-300q-31 0 -53 -22t-22 -53v-624q0 -31 22 -53t53 -22h800q31 0 53 22t22 53v624q0 31 -22 53t-53 22v0z" />
    <glyph glyph-name="fanhui-hei" unicode="&#xe627;" 
d="M775 -21l94 -12v-24h-27l-121 -71h-81q-26 66 -85.5 142.5t-125.5 138.5t-129.5 115t-103.5 83t-41 30q2 0 8 1l-8 2q16 11 43 31.5t99.5 80.5t133 118.5t122 137t87.5 144.5h81l121 -71h27v-24l-94 -12q-18 -16 -49 -43t-112.5 -95.5t-148 -121.5t-130.5 -98t-86 -47
q-9 -1 -21 -2q13 -1 21 -1q67 -7 470 -354q55 -47 56 -48z" />
    <glyph glyph-name="fenxiang-hei" unicode="&#xe628;" horiz-adv-x="1086" 
d="M1058 512v-563l-95 -55l9 55h-886v-33l-86 -44v741q20 -4 41.5 -23t33.5 -36l11 -17l228 1v-51l-228 6v-493h886v487h-229v51h229v51q0 7 3 12t7 7.5t8 3.5t7 1h3q12 -13 33.5 -26.5t37.5 -20.5l15 -8v-32zM728 656l-156 86v-511l70 -75l-156 -79v665q-17 -32 -59 -64
t-81 -32q-28 -1 -43 4.5t-17 13.5t-0.5 16.5t6.5 13.5l4 6l247 196q194 -174 222 -218q11 -20 3 -25t-24 -1z" />
    <glyph glyph-name="you-kuaijin" unicode="&#xe629;" 
d="M512 -128q-104 0 -199 40.5t-163.5 109t-109 163.5t-40.5 199t40.5 199t109 163.5t163.5 109t199 40.5t199 -40.5t163.5 -109t109 -163.5t40.5 -199t-40.5 -199t-109 -163.5t-163.5 -109t-199 -40.5zM512 865q-98 0 -187 -38t-153.5 -102.5t-102.5 -153.5t-38 -187
t38 -187t102.5 -153.5t153.5 -102.5t187 -38t187 38t153.5 102.5t102.5 153.5t38 187t-38 187t-102.5 153.5t-153.5 102.5t-187 38zM515 381zM81 381q0 -88 34.5 -168.5t92.5 -139t138.5 -93t168.5 -34.5t168.5 34.5t139 93t93 139t34.5 168.5t-34.5 168.5t-93 138.5
t-139 92.5t-168.5 34.5t-168.5 -34.5t-138.5 -92.5t-92.5 -138.5t-34.5 -168.5zM770 398q-7 -4 -17 -12t-37.5 -31t-50.5 -45t-46.5 -51.5t-33.5 -54.5h-31l-47 26h-11v10l36 4q7 6 18.5 16.5t43 36.5t56.5 46t49.5 37t32.5 18h8h-8q-13 1 -63 40t-93 77l-44 38l-36 5v11h11
l47 28h31q9 -26 32 -55.5t48 -54t49 -45t40 -32.5l16 -12q0 3 -4 0h4zM573 400h-4h4q0 -1 -16 -12.5t-39.5 -31.5t-49 -44t-48 -53.5t-32.5 -54.5h-31l-47 26h-11v10l36 4q7 6 18.5 16.5t42.5 36.5t56.5 46t50 37t32.5 18h8h-8q-29 3 -200 155l-36 5v11h11l47 28h31
q16 -41 62.5 -90.5t83 -78t39.5 -28.5z" />
    <glyph glyph-name="yifufei-fenxiang" unicode="&#xe62a;" horiz-adv-x="1098" 
d="M1074 521v-574l-75 -50v50l-912 2v-33l-87 -44v741q20 -5 38.5 -21.5t27.5 -30.5l9 -15h250v-49h-250v-500h924v500h-250v49h250l9 43q0 11 7 17t14 6l7 1q12 -13 28 -26.5t25 -21.5l10 -7v-33zM737 656l-163 90v-524l75 -67l-150 -83v674q-17 -32 -63 -66t-86 -35
q-28 0 -43.5 5.5t-17.5 13.5t0 16t6 14l5 6l249 196q197 -174 225 -218q11 -20 2.5 -25t-23.5 -1z" />
    <glyph glyph-name="yifufei-pinglun" unicode="&#xe62b;" 
d="M942 803v-721l-69 -47v70h-407q-79 -111 -193 -233l-26 8q78 119 117 225h-259v-70l-70 -20v881l70 -70h768q-2 7 6.5 21.5t17.5 25.5l10 11h23q2 -6 17 -18t28 -21l14 -9v-23zM873 780h-768v-629h275q8 27 14 54l104 -54h375v629zM454 299q1 5 12 16t11 23v372l70 -52
l-23 -18v-372zM663 338v372l70 -51l-23 -19v-372l-70 33q1 5 12 15t11 22zM314 268l-69 33q1 5 12 15t11 22v372l70 -50l-24 -33v-359z" />
    <glyph glyph-name="zuo-kuaitui" unicode="&#xe62d;" 
d="M512 -128q-104 0 -199 40.5t-163.5 109t-109 163.5t-40.5 199t40.5 199t109 163.5t163.5 109t199 40.5t199 -40.5t163.5 -109t109 -163.5t40.5 -199t-40.5 -199t-109 -163.5t-163.5 -109t-199 -40.5zM512 865q-98 0 -187 -38t-153.5 -102.5t-102.5 -153.5t-38 -187
t38 -187t102.5 -153.5t153.5 -102.5t187 -38t187 38t153.5 102.5t102.5 153.5t38 187t-38 187t-102.5 153.5t-153.5 102.5t-187 38zM515 381zM81 381q0 -88 34.5 -168.5t92.5 -139t138.5 -93t168.5 -34.5t168.5 34.5t139 93t93 139t34.5 168.5t-34.5 168.5t-93 138.5
t-139 92.5t-168.5 34.5t-168.5 -34.5t-138.5 -92.5t-92.5 -138.5t-34.5 -168.5zM515.5 -69q-91.5 0 -175 35.5t-143.5 96t-96 143.5t-36 174.5t36 175t96 143.5t143.5 96t175 36t174.5 -36t143.5 -96t96 -143.5t35.5 -175t-35.5 -174.5t-96 -143.5t-143.5 -96t-174.5 -35.5z
M515 800q-114 0 -210.5 -56t-152.5 -152.5t-56 -210.5t56 -210.5t152.5 -152.5t210.5 -56t210.5 56t152.5 152.5t56 210.5t-56 210.5t-152.5 152.5t-210.5 56zM670 243l36 -5v-9h-11l-46 -27h-31q-16 40 -62.5 88t-84.5 76l-38 29h3h-3q6 4 16 11.5t38 30.5t51 45.5t46.5 52
t33.5 54.5h31l46 -27h11v-9l-36 -5q-7 -6 -18.5 -16t-42.5 -36t-56.5 -46t-50 -37t-32.5 -18h-8h8q13 -2 63 -40t94 -75t43 -37zM276 396h-8q3 -2 8 0q13 -2 63 -40t94 -75.5t43 -37.5l36 -5v-9h-11l-46 -27h-31q-16 40 -63 88t-83.5 76.5t-38.5 28.5h3h-3q6 4 16.5 11.5
t38 30.5t50.5 45.5t46.5 52t33.5 54.5h31l46 -27h11v-9l-36 -5q0 1 -44 -36t-94 -75.5t-62 -40.5z" />
    <glyph glyph-name="yifufei-shoucang" unicode="&#xe62e;" horiz-adv-x="1050" 
d="M798 178q-75 -46 -130.5 -95t-81 -83.5t-41 -67t-17.5 -44t-2 -16.5q-1 5 -1 9q-1 -4 -2 -9v1q-9 74 -92 163q-69 75 -179 144q-108 66 -172 160.5t-76.5 187t19 179t102.5 142.5q42 32 98 42t111.5 -2.5t107.5 -53t83 -103.5v-143q-8 6 -21.5 16.5t-43 27.5t-45.5 17v36
h3t7.5 1t10.5 2t10 4t7.5 6.5t2.5 9.5t-5 13q-12 18 -30 36t-49 35.5t-65 22t-77.5 -13.5t-85.5 -62q-25 -25 -38.5 -67t-10 -98.5t24.5 -115.5t73.5 -124t130.5 -119q54 -38 94 -79t61.5 -78.5t31.5 -68t14 -59.5q3 29 13.5 59.5t32 67.5t61 77.5t94.5 78.5
q78 54 130.5 119t74 123.5t25 114.5t-10.5 98t-38 67q-42 44 -86 62t-78 13.5t-65 -22t-49.5 -35.5t-29.5 -36q-9 -16 -1 -24t22 -10l15 -2v-36q-16 0 -43.5 -13.5t-46.5 -26.5l-19 -14v144q32 63 83.5 102t107 50t111 0t97.5 -44q72 -55 103.5 -141t19 -178.5t-77 -186.5
t-172.5 -160z" />
    <glyph glyph-name="pop-xuanzhong" unicode="&#xe62f;" horiz-adv-x="1402" 
d="M1400 -126h-1399l700 1022z" />
    <glyph glyph-name="pop-moxuanzhong" unicode="&#xe630;" horiz-adv-x="1507" 
d="M0 896h1502l-751 -1024z" />
    <glyph glyph-name="yigou-biaotibiaoqian" unicode="&#xe631;" 
d="M814 896l209 -210l-813 -814l-210 210z" />
    <glyph glyph-name="weixin" unicode="&#xe632;" 
d="M512 -128q-104 0 -199 40.5t-163.5 109t-109 163.5t-40.5 199t40.5 199t109 163.5t163.5 109t199 40.5t199 -40.5t163.5 -109t109 -163.5t40.5 -199t-40.5 -199t-109 -163.5t-163.5 -109t-199 -40.5zM512 886q-102 0 -195 -40t-160 -107t-107 -160t-40 -195t40 -195
t107 -160t160 -107t195 -40t195 40t160 107t107 160t40 195t-40 195t-107 160.5t-160 107t-195 39.5zM731 176l12 -46q0 -7 -2.5 -8.5t-5.5 0.5l-2 2l-43 29q-40 -17 -85 -17q-66 0 -117.5 36t-66.5 92q-6 19 -6 39q0 70 55.5 118.5t133.5 48.5h14q74 -4 125 -52t51 -115
q2 -76 -63 -127zM535 395q-11 0 -19 -8t-8 -19t8 -19t19 -8t19 8t8 19t-8 19t-19 8zM673 395q-11 0 -19 -8t-8 -19t8 -19t19 -8t19 8t8 19q-1 11 -9 19t-18 8zM401 301q0 -19 5 -40h-7q-43 0 -82 14l-61 -42q-9 -4 -12.5 -1.5t-3.5 7.5l1 5l15 61q-36 28 -57 66.5t-21 82.5
q0 80 64.5 136.5t156.5 56.5q82 0 143.5 -47t73.5 -118h-12q-83 0 -143 -52.5t-60 -128.5zM313 544q-11 0 -19 -8t-8 -19t8 -19t19 -8t19 8t8 19t-8 19t-19 8zM482 544q-11 0 -19 -8t-8 -19t8 -19t19 -8t19 8t8 19t-8 19t-19 8z" />
    <glyph glyph-name="xinlang" unicode="&#xe633;" 
d="M512 -128q-104 0 -199 40.5t-163.5 109t-109 163.5t-40.5 199t40.5 199t109 163.5t163.5 109t199 40.5t199 -40.5t163.5 -109t109 -163.5t40.5 -199t-40.5 -199t-109 -163.5t-163.5 -109t-199 -40.5zM512 886q-102 0 -195 -40t-160 -107t-107 -160t-40 -195t40 -195
t107 -160t160 -107t195 -40t195 40t160 107t107 160t40 195t-40 195t-107 160.5t-160 107t-195 39.5zM786 425q-3 -22 -20 -22q-5 0 -11 2t-8 6q-3 4 -3 10q0 4 1 6q0 1 0.5 3t0.5 3t0.5 2.5t0.5 2.5q0 2 1 3v1q10 36 -7 74q-11 16 -20 24q-12 11 -23 16t-23 10q-7 3 -21 5
q-6 1 -16 1q-7 0 -9 -1q-1 -1 -2.5 -1.5t-2.5 -0.5q-2 -1 -6 -1q-1 0 -2.5 -0.5t-2.5 -0.5q-2 0 -3 -1v0h-2q-9 0 -15.5 7t-6.5 16q0 6 4.5 12.5t11.5 8.5l1 1l1 1l1 1q48 9 77 3q14 -4 26 -9q11 -5 26 -14q15 -10 25 -20q10 -11 19 -26q9 -13 13 -33q5 -17 3 -41
q0 -21 -8 -48zM625 500q-6 0 -11 5t-5 11q0 2 2 8l6 6q2 2 8 2q16 3 33 -1q59 -10 52 -84q0 -2 -1 -2q0 -3 -3 -6q-2 -4 -5 -5q-4 -2 -7 -2q-6 0 -11 5t-5 11q3 9 1 21q-3 43 -54 31zM609 483q15 -3 24 -12q7 -9 8 -11q2 -4 4 -12q2 -6 0 -12q0 -6 -2 -10l-3 -9q-1 -5 -3 -6
l-1 -2l-2 -3q-2 -4 1 -7q3 -5 13 -6q8 -2 18 -6q9 -4 21 -14t19 -22.5t7 -33.5q0 -19 -11 -42q-19 -41 -63 -67q-43 -28 -95 -40q-49 -11 -100 -8q-19 1 -55 7q-21 4 -55 16q-28 10 -50 26q-19 14 -35 40q-17 27 -19 55v14q0 16 10 43q10 28 31 56l7 10q3 4 11 12.5t11 13.5
l9.5 9.5l12 12t10.5 9.5q22 20 41 32q26 17 46 23q22 7 33 8q14 1 24 -2q11 -3 16 -9q7 -6 9 -14q4 -12 4 -15q1 -5 1 -15q0 -1 -2 -9q0 -1 -0.5 -3t-1 -3t-0.5 -2q0 -4 -1 -6q0 -3 1 -4l4 -2q3 -2 7 0q3 0 11 3l8 3q2 1 6 2.5t7.5 2.5t7.5 2q18 4 28 6q12 5 28 1zM570 389
q-50 27 -120 24q-68 -3 -119 -37q-49 -32 -49 -79t49 -78t119 -28q69 3 118.5 41t49.5 84t-48 73zM514 256q-21 -29 -60 -38q-37 -7 -79 13q-8 5 -12 10q-6 8 -7 11q-2 3 -4 11q-1 4 -1 8v3l-1 5q0 7 1 13q0 7 3 17q3 12 8 20q4 7 14 19q9 9 23 16q15 8 33 9q29 3 47 -4
q20 -7 31 -21q10 -13 15 -30q4 -15 1 -32q-3 -20 -12 -30zM438 287q-1 4 -4 7q-4 4 -7 5q-4 2 -8 2q-7 2 -11 0q-9 0 -15 -5q-6 -4 -11 -12q-4 -7 -4 -14q0 -4 1 -6q2 -4 3 -5q1 -2 4 -5t5 -4q4 -2 6 -2q2 -1 7 -1h7q7 0 16 5q7 4 10 11q4 5 4 14q-1 2 -1.5 5.5t-1.5 4.5z
M468 313q-1 5 -6.5 5t-10.5 -3l-2 -3q-2 0 -2 -2l-1 -3l-0.5 -1t-0.5 -2v-3q0 -2 1 -2l1 -3q2 -4 7 -4t9 3q2 2 4 5.5t2 5.5q1 3 -1 7z" />
    <glyph glyph-name="qq" unicode="&#xe634;" 
d="M512 -128q-104 0 -199 40.5t-163.5 109t-109 163.5t-40.5 199t40.5 199t109 163.5t163.5 109t199 40.5t199 -40.5t163.5 -109t109 -163.5t40.5 -199t-40.5 -199t-109 -163.5t-163.5 -109t-199 -40.5zM512 886q-102 0 -195 -40t-160 -107t-107 -160t-40 -195t40 -195
t107 -160t160 -107t195 -40t195 40t160 107t107 160t40 195t-40 195t-107 160.5t-160 107t-195 39.5zM721 308l-1 9l-2 8l-1 4l-1 5l-2 4l-2 5l-2 5l-2 5l-4 8l-3 7l-3 6l-3 6l-3 5l-2 5l-5 7l5 6l2 6v2l1 3l1 3l1 6l1 3v12l-1 5l-1 4l-1 4l-2 4l-2 3l-1 3l-2 3l-3 4l-1 1v1
l-1 8l-1 6l-1 7l-1 7l-2 8l-1 5l-1 4l-1 4l-2 5l-2 4l-2 5l-4 9l-2 4l-3 5l-3 4l-3 5l-4 4l-3 4l-4 4l-4 4l-4 4l-5 4l-2 1l-2 2l-5 4l-6 4l-6 3l-6 3l-6 3l-6 3l-7 2l-7 2l-7 2l-7 2l-7 2l-7 1l-7 1l-7 1h-28l-7 -1l-7 -1l-7 -1l-7 -1l-6 -2l-6 -2l-6 -2l-6 -2l-6 -3l-6 -2
l-5 -3l-5 -3l-4 -3l-5 -4l-4 -3l-6 -6l-5 -5l-5 -5l-4 -5l-4 -5l-4 -5l-3 -5l-2 -2l-2 -3l-3 -5l-3 -5l-2 -5l-2 -5l-2 -4l-2 -4l-2 -4l-2 -4l-2 -7l-1 -7l-1 -6l-1 -5v-10l-1 -2l-1 -2l-1 -2l-1 -1l-1 -4l-1 -4v-10l-3 -4l-2 -4l-2 -4l-1 -4l-1 -3l-1 -3v-10l1 -4l1 -3
l-2 -1l-4 -3l-6 -5l-4 -3l-3 -3l-2 -2l-2 -2l-4 -5l-4 -5l-3 -4l-4 -6l-4 -5l-4 -6l-3 -5l-2 -6l-3 -5l-2 -5l-2 -5l-2 -5l-1 -5l-1 -5l-1 -5l-1 -5l-1 -4v-24l1 -6v-3l1 -3l1 -3l1 -2l1 -3l1 -1l1 -1h4l4 1l3 1l3 2l3 2l3 2l3 3l2 3l2 3l2 3l2 2l1 3l2 4l1 2v2l1 1h2l1 -6
l1 -5l2 -5l2 -4l2 -4l2 -4l2 -4l2 -4l2 -3l2 -3l5 -6l4 -5l4 -4l4 -4l3 -3l5 -5l2 -1l1 -1h-12l-3 -1l-3 -1l-3 -1l-2 -1l-2 -1l-2 -1l-2 -1l-2 -1l-2 -1l-2 -3l-1 -1l-1 -1l-1 -3l-1 -2l-1 -2v-18l1 -3l1 -2l1 -2l1 -2l1 -1l2 -2l1 -1l3 -3l4 -2l4 -2l4 -2l5 -2l5 -1l5 -2
l5 -1l5 -1l6 -1l6 -1l11 -1h49l6 1l5 1l4 1l8 3l4 1l3 2l6 3l5 3l4 2l3 3h22l2 -1l3 -1l4 -1l7 -2l7 -3l7 -2l7 -1l7 -2l7 -1l7 -1l7 -1l7 -1h26l6 1h6l6 1l5 1l5 1l5 1l2 1l2 1l5 2l4 2l4 2l4 2l3 2l1 1l1 2l2 2l2 3l1 1v1l1 2v10l-1 2l-1 2l-1 2l-2 2l-2 2l-2 2l-4 4l-5 4
l-5 3l-5 3l-11 6l-3 2l-1 1l5 6l2 3l2 3l4 6l4 6l3 5l3 5l4 10l3 8l2 6l1 2l1 2l1 1h1l3 -6l3 -6l2 -3l2 -3l2 -3l2 -3l2 -2l1 -1l1 -1l1 -1l1 -1l2 -1h4l2 1l2 1l1 1l1 1l1 2l1 1l1 2l1 2l1 3l1 2l2 5l1 6l1 6l1 4v10z" />
    <glyph glyph-name="fenxiang-pengyouquan" unicode="&#xe635;" 
d="M512 384zM0 384q0 -139 68.5 -257t186.5 -186.5t257 -68.5t257 68.5t186.5 186.5t68.5 257t-68.5 257t-186.5 186.5t-257 68.5t-257 -68.5t-186.5 -186.5t-68.5 -257zM774 261h-186l203 191q2 -2 4 -7t5.5 -22t3 -37t-7.5 -54t-22 -71zM647 641q5 -2 12.5 -6t28 -19
t38 -33t36 -48.5t26.5 -64.5l-141 -123v294zM630 649v-190l-202 202q55 16 100 13.5t73 -13.5zM257 520q1 4 4.5 10.5t16.5 24.5t28.5 34t42.5 34.5t57 30.5l131 -134h-280zM232 308q-1 4 -3 11.5t-5 30t-3 44.5t5.5 51.5t18.5 54.5h191zM375 129q-4 1 -10 4t-23.5 15
t-33.5 28t-36.5 46t-36.5 66l140 125v-284zM394 118v179l194 -194q-110 -27 -187 12zM759 237q-2 -4 -4.5 -10t-15 -23.5t-28 -33t-43.5 -33t-61 -27.5l-123 127h275z" />
    <glyph glyph-name="quxiao" unicode="&#xe636;" horiz-adv-x="1032" 
d="M1008 -16q-9 -8 -24.5 -20t-48 -38t-55 -41.5t-23.5 -12.5q-3 8 -8 23t-27 62.5t-51.5 97.5t-85 125t-122.5 149q-56 -62 -112 -116.5t-103 -95t-87.5 -73t-76 -57t-57.5 -39t-44 -27t-23 -13.5q-39 -25 -56 -16q-10 4 7 16q297 231 493 483q-206 210 -492 394
q-20 11 -8 16q18 8 56 -12q2 -1 22.5 -10.5t42 -21t56 -30t74 -44.5t85.5 -58t101 -75.5t112 -92.5q52 73 94 145t64.5 122.5t37 91t19.5 60.5l4 19q2 5 42.5 -19.5t79.5 -50.5l40 -27q3 -1 6.5 -3.5t12 -9.5t7 -11t-9.5 -8q-7 -2 -18 -4t-16.5 -3.5t-14 -7.5t-15.5 -17
q-130 -185 -264 -340q167 -155 332 -350q9 -11 17.5 -16.5t14.5 -6.5t17 -1.5t18 -2.5q25 -6 -13 -33z" />
    <glyph glyph-name="fenxiang-weixin" unicode="&#xe637;" 
d="M512 384zM0 384q0 -139 68.5 -257t186.5 -186.5t257 -68.5t257 68.5t186.5 186.5t68.5 257t-68.5 257t-186.5 186.5t-257 68.5t-257 -68.5t-186.5 -186.5t-68.5 -257zM738 169l12 -46q0 -7 -2.5 -9t-5.5 -1l-3 2l-43 30q-40 -18 -85 -18q-67 0 -119 36.5t-68 91.5
q-5 20 -5 41q0 70 56 119.5t136 49.5q6 0 14 -1q75 -5 126.5 -53t51.5 -115q0 -77 -65 -127zM540.5 390q-11.5 0 -19 -8t-7.5 -19.5t7.5 -19.5t19 -8t19 8t7.5 19.5t-7.5 19.5t-19 8zM679 390q-11 0 -19 -8t-8 -19.5t8 -19.5t19 -8t19 8t8 19.5t-8 19.5t-19 8zM405 296
q0 -21 5 -41q-1 0 -3.5 -0.5t-3.5 -0.5q-43 0 -82 14l-62 -42q-10 -4 -13.5 -1.5t-2.5 7.5l1 6l16 62q-37 27 -58 66t-21 84q0 81 65 138t157 57q83 0 145.5 -47.5t74.5 -119.5q-8 1 -12 1q-85 0 -145.5 -53.5t-60.5 -129.5zM317 541q-11 0 -19 -8t-8 -19.5t8 -19.5t19 -8
t19 8t8 19.5t-8 19.5t-19 8zM486.5 541q-11.5 0 -19 -8t-7.5 -19.5t7.5 -19.5t19 -8t19.5 8t8 19.5t-8 19.5t-19.5 8z" />
    <glyph glyph-name="fenxiang-xinlang" unicode="&#xe639;" 
d="M512 384zM0 384q0 -139 68.5 -257t186.5 -186.5t257 -68.5t257 68.5t186.5 186.5t68.5 257t-68.5 257t-186.5 186.5t-257 68.5t-257 -68.5t-186.5 -186.5t-68.5 -257zM794 420q-3 -22 -21 -22h-1q-6 0 -11 2q-5 1 -8 5t-3 10q0 3 0.5 6.5t1.5 5.5q0 3 1 5.5t1 3v1.5
q11 36 -6 75q-9 13 -20 24q-12 10 -23 16t-23 10t-21 5q-8 1 -16 1q-7 0 -9 -1t-5 -2t-5.5 -1t-5.5 -1q-1 -1 -2 -1h-2h-1q-9 0 -15 7q-7 6 -7 16q0 7 4.5 13.5t12.5 8.5v1l1 1l1 1q49 9 77 2v0q14 -3 27 -8.5t26.5 -14t24.5 -19.5t20 -27q9 -15 13 -33q4 -17 3 -40.5
t-9 -49.5zM631 497v0q-6 0 -10.5 4.5t-4.5 10.5v0q0 4 2 7.5t5.5 6t7.5 2.5q15 3 33 -1q60 -10 52 -85v-2q-1 -3 -3 -6t-5 -5t-7 -2v0v0h-1q-6 0 -10.5 4.5t-4.5 10.5v1q2 6 2 14q0 3 -1 7q-4 44 -55 33zM615 479q15 -2 24 -11q5 -6 8 -12.5t4 -12t1 -11.5q-1 -6 -2 -11
q-1 -4 -3 -8.5t-3 -5.5q0 -1 -1 -2l-2 -3q-2 -3 1 -7t13 -6v0q8 -2 18 -6.5t21.5 -14t18.5 -22.5t7 -33.5t-12 -43.5q-18 -39 -63 -67.5t-96.5 -40t-100.5 -7.5q-28 2 -56 7q-26 5 -55 16t-50 26.5t-36.5 40t-19.5 56.5v14q-1 14 9.5 42.5t32.5 56.5l7 11q8 10 22 25
q16 17 32 33q17 17 40.5 32t46.5 23q19 7 34 8t24.5 -2t16 -8.5t9.5 -14t4 -15.5t1 -14q0 -4 -2 -9q-1 -4 -1 -8q-1 -4 -1 -7t1 -4t3.5 -2t6.5 -0.5t11 2.5l8 4q9 3 22 6.5t28 6.5q7 1 14 1t15 -2zM576 384q-49 27 -120.5 23.5t-120.5 -37t-49 -80.5t49.5 -78t119.5 -28v0
q70 4 120 41.5t50 85.5q0 46 -49 73zM519 249q-23 -29 -60.5 -37.5t-80.5 12.5q-7 4 -12.5 10t-7.5 11t-3 11q-2 6 -2 8v2v6q0 4 0.5 12.5t2.5 18.5q3 10 8 20q6 10 15 19q8 9 23 15.5t34 8.5v0q27 4 47.5 -3.5t31 -21.5t15.5 -31q2 -9 2 -19q0 -7 -1 -14q-3 -16 -12 -28z
M443 281q-1 4 -4 7t-7 5q-5 3 -10 3q-3 1 -7 1h-4q-9 -1 -16 -6q-6 -5 -10 -12q-4 -6 -4 -14q0 -3 1 -6t2.5 -5.5t3.5 -4.5t5 -3.5t6 -2.5t6.5 -1.5t7.5 0.5v0q8 1 16 5q6 5 11 12q4 6 4 13v0q0 5 -1 9zM473 307q-2 5 -7 5.5t-10 -3.5l-2 -2l-2 -2l-1 -3q-1 -2 -1 -3v0v-3
q0 -1 1 -3l1 -2q2 -4 7 -4.5t9 2.5v0q3 3 4.5 6t2.5 6v1q0 3 -2 5z" />
    <glyph glyph-name="wodeshangji" unicode="&#xe63a;" 
d="M626 -128h-226q-101 0 -168 71l-159 159q-71 70 -71 168v226q0 101 71 168l159 159q71 71 168 71h226q101 0 168 -71l159 -159q71 -71 71 -168v-226q0 -101 -71 -168l-159 -159q-67 -71 -168 -71zM398 873q-92 0 -152 -63l-160 -160q-63 -63 -63 -152v-226q0 -92 63 -152
l160 -159q63 -64 152 -64h226q92 0 152 64l159 159q64 64 64 152v226q0 92 -64 152l-159 160q-64 63 -152 63h-226zM328 561q-2 -1 -4 -4t-4.5 -10.5t0 -13t13.5 -10.5t31 -5q30 0 66 28.5t48 53.5v-523l107 61l-62 53v409l126 -73q1 0 3 -1t8 -2.5t10 -1t7.5 1.5t3.5 6
t-5 13q-9 15 -50.5 58t-78.5 78l-37 35z" />
    <glyph glyph-name="wodexiaji" unicode="&#xe63b;" 
d="M626 -128h-226q-101 0 -168 71l-159 159q-71 70 -71 168v226q0 101 71 168l159 159q71 71 168 71h226q101 0 168 -71l159 -159q71 -71 71 -168v-226q0 -101 -71 -168l-159 -159q-67 -71 -168 -71zM398 873q-92 0 -152 -63l-160 -160q-63 -63 -63 -152v-226q0 -92 63 -152
l160 -159q63 -64 152 -64h226q92 0 152 64l159 159q64 64 64 152v226q0 92 -64 152l-159 160q-64 63 -152 63h-226zM328 229q-2 2 -4 5t-4.5 10.5t0 13t13.5 10t31 4.5q30 0 66 -28t48 -53v523l107 -61l-62 -53v-409l128 72q1 1 3.5 1.5t8 2t9.5 1.5t8 -1.5t3.5 -6
t-5.5 -13.5q-20 -34 -166 -170z" />
    <glyph glyph-name="zhengque" unicode="&#xe63c;" horiz-adv-x="1412" 
d="M130 522l389 -389l763 763l131 -131l-894 -893l-519 519z" />
    <glyph glyph-name="zhongguoyinhang" unicode="&#xe63d;" 
d="M1021 406q-2 51 -15 101t-30 85.5t-33.5 63.5t-28.5 41l-11 14q-49 57 -107.5 97t-107 56.5t-90.5 24.5t-66 7h-24q-66 2 -130 -15.5t-107.5 -42.5t-78 -52t-51 -44.5t-16.5 -18.5q-89 -107 -109 -220l-1 -10q-9 -38 -11.5 -77.5t1 -71.5t10.5 -64.5t14.5 -54t16 -41.5
t12 -26.5t4.5 -9.5v0q50 -91 108.5 -143t150.5 -95q89 -41 205.5 -38t201.5 46t140 96t100 139q28 52 41 115.5t13 100.5zM460 -14q-8 0 -21 2t-50.5 13.5t-71.5 29.5t-75.5 56.5t-70.5 89.5q-1 2 -4.5 7t-11.5 21.5t-15.5 34t-15 44t-11 53t-2.5 60t9 65.5q6 29 15.5 55.5
t19 46.5t21 39.5t21 31.5t21 25t17.5 19t14.5 13.5t9.5 8.5q20 19 86 50t115 31v-189h-79q-4 -1 -11.5 -2t-26 -8.5t-33 -20t-27 -37.5t-13.5 -59v-175q0 -4 1 -11.5t7.5 -26.5t17 -34t34 -29.5t54.5 -17.5h76v-186v0zM396 283q-1 1 -5 -0.5t-9.5 3t-7.5 14.5v167q1 2 1.5 5
t5 8t10.5 5h232q1 0 5.5 0.5t10 -4t6.5 -14.5v-162q0 -1 0.5 -3t0 -6t-1.5 -7t-4.5 -5t-8.5 -1h-235v0zM848 160q-35 -53 -92 -94t-106 -59t-87 -21v186h89q3 1 9.5 2.5t23 10.5t29.5 20.5t24.5 34t12.5 50.5v198q0 4 -2 11t-10 24.5t-20 31t-35 25t-52 13.5h-69v189
q5 -1 13.5 -2t34 -7.5t50 -16t56.5 -29t59 -43.5q101 -95 129 -224q5 -22 6 -52t-2 -71t-19 -88.5t-42 -88.5z" />
    <glyph glyph-name="gongshangyinhang" unicode="&#xe63e;" 
d="M800 347v-227h-251v74h171v83h-171v227h171v77h-171v74h251v-227h-171v-77h171v-4zM224 347v-227h251v74h-171v83h171v227h-171v77h171v74h-251v-227h171v-77h-171v-4zM512 896q-104 0 -199 -40.5t-163.5 -109t-109 -163.5t-40.5 -199t40.5 -199t109 -163.5t163.5 -109
t199 -40.5t199 40.5t163.5 109t109 163.5t40.5 199t-40.5 199t-109 163.5t-163.5 109t-199 40.5zM512.5 -26q-111.5 0 -206.5 54.5t-149.5 149.5t-54.5 206.5t54.5 206t149.5 149t206.5 54.5t206 -54.5t149 -149t54.5 -206t-54.5 -206.5t-149 -149.5t-206 -54.5z" />
    <glyph glyph-name="jiansheyinhang" unicode="&#xe63f;" 
d="M478 826q4 3 10 7t27.5 12t45 12t61 1.5t76.5 -15.5q47 -17 101 -65l167 -176l-89 -89l-256 260l-5.5 5.5t-16 12.5t-27.5 16t-40.5 13t-53.5 6zM847 482l-105 -102q-1 -1 -2 -2.5t-5 -4.5t-7.5 -4t-8 1t-8.5 8l-193 189l-2 2t-5 4t-7.5 4t-7.5 -0.5t-8 -7.5l-195 -198
q-12 -20 3 -28l190 -190q1 -1 2 -3t4.5 -5t7 -4.5t8 -0.5t8.5 7l197 199q1 1 2.5 4t11 6.5t23.5 1.5h201q1 -8 0.5 -22.5t-7.5 -56.5t-20.5 -81t-44.5 -87.5t-75 -83.5q-4 -5 -12 -12t-34.5 -25.5t-55.5 -33.5t-73 -29t-89 -18t-102.5 5t-114.5 35q-6 2 -15.5 6t-37 20.5
t-53 37.5t-56 58t-52.5 79.5t-37 105.5t-14 134q0 5 0.5 13.5t5.5 35t13 53t25 62.5t39 68t57 65.5t78 58.5q7 5 18 12t44.5 22t65.5 22.5t74 2t76 -28.5z" />
    <glyph glyph-name="nongyeyinhang" unicode="&#xe640;" 
d="M512 896q-26 0 -46 -2v-247q0 -9 6 -15t14 -6h52q8 0 14 6t6 15v247q-20 2 -46 2zM543 561h72q8 0 14 6t6 14v264h52v-420q0 -10 -7 -17t-17 -7h-116q-6 0 -11 -1t-7.5 -2.5t-3.5 -3.5t-1 -3l-1 -1v151q0 8 6 14t14 6zM482 561h-72q-8 0 -14 6t-6 14v264h-52v-420
q0 -10 7 -17t17 -7h116q7 0 11.5 -1t7 -2.5t3.5 -3.5t2 -3v-1v151q0 8 -6 14t-14 6zM359 221h82q8 0 14 -6t6 -15v-318h41v474q0 10 -7 17t-16 7h-117q-10 0 -15.5 3t-6.5 6l-1 3v-151q0 -8 5.5 -14t14.5 -6zM666 221h-82q-8 0 -14 -6t-6 -15v-318h-41v474q0 10 7 17t16 7
h117q10 0 15.5 3t6.5 6l1 3v-151q0 -8 -5.5 -14t-14.5 -6zM635 881v-106q126 -40 206.5 -147.5t80.5 -243.5q0 -111 -55 -205.5t-149.5 -149.5t-205.5 -55t-205.5 55t-149.5 149.5t-55 205.5q0 136 80.5 243.5t207.5 147.5v107q-170 -42 -280 -180.5t-110 -317.5
q0 -139 68.5 -257t186.5 -186.5t257 -68.5t257 68.5t186.5 186.5t68.5 257q0 178 -109.5 316.5t-279.5 180.5zM537 -56h-51q-9 0 -15 6t-6 14v256h93v-256q0 -8 -6 -14t-15 -6z" />
    <glyph glyph-name="zhifubao" unicode="&#xe641;" horiz-adv-x="1310" 
d="M208 243q-4 -11 -1 -26.5t7.5 -32.5t19.5 -33.5t35 -29.5t52.5 -21t73.5 -8q76 0 149.5 44t136.5 125q-90 44 -166 64t-155 20q-65 0 -105 -31.5t-47 -70.5zM412 15q-119 0 -191.5 64t-62.5 156q3 27 11.5 52t30 53.5t52.5 47.5t84 29t121 4q26 -2 48.5 -5t45 -8t37 -8
t38.5 -10.5t34 -10.5t39.5 -13t40.5 -13q39 72 64 157h-450v45h223v80h-271v49h271v115q0 2 1 5t7 8t14 5h112v-133h289v-49h-289v-80h236q-32 -131 -96 -241q57 -21 329 -104v538q0 61 -43.5 104.5t-104.5 43.5h-728q-61 0 -104.5 -43.5t-43.5 -104.5v-728
q0 -61 43.5 -104.5t104.5 -43.5h728q61 0 104.5 43.5t43.5 104.5v13q-278 121 -400 179q-81 -98 -167 -147.5t-201 -49.5z" />
    <glyph glyph-name="shoucang" unicode="&#xe642;" 
d="M626 -128h-226q-101 0 -168 71l-159 159q-71 70 -71 168v226q0 101 71 168l159 159q71 71 168 71h226q101 0 168 -71l159 -159q71 -71 71 -168v-226q0 -101 -71 -168l-159 -159q-67 -71 -168 -71zM398 873q-92 0 -152 -63l-160 -160q-63 -63 -63 -152v-226q0 -92 63 -152
l160 -159q63 -64 152 -64h226q92 0 152 64l159 159q64 64 64 152v226q0 92 -64 152l-159 160q-64 63 -152 63h-226zM630 250q-35 -23 -61.5 -47t-39 -40.5t-19.5 -33t-8 -22t-1 -7.5v4v-4q0 2 -1 7.5t-8.5 22t-19.5 33t-38.5 40.5t-62.5 47q-68 43 -98.5 107.5t-19 124
t58.5 95.5q27 22 63.5 24t71.5 -19t56 -61v-71q-37 30 -52 30v18q3 0 7 0.5t9.5 5t1.5 12.5q-8 11 -20.5 21.5t-31.5 19.5t-44 1.5t-50 -33.5q-14 -16 -19.5 -44.5t0 -63.5t33 -75.5t73.5 -73.5q85 -61 95 -139q11 78 96 139q46 33 73.5 73t33 75t0 63.5t-20.5 43.5
q-24 26 -49.5 33.5t-45.5 -1.5t-32.5 -19.5t-20.5 -21.5q-4 -8 0 -12t11 -5l8 -1v-19q-9 0 -22 -6.5t-22 -13.5l-9 -7v71q21 40 56.5 60t71.5 17t63 -25q44 -36 54.5 -94.5t-20.5 -122.5t-100 -106z" />
    <glyph glyph-name="jifenshangcheng-geshenghuodong" unicode="&#xe643;" 
d="M917 -128h-277q-45 0 -76 31t-31 76v277q0 45 31 76t76 31h277q45 0 76 -31t31 -76v-277q0 -44 -31 -75.5t-76 -31.5zM640 320q-27 0 -45.5 -18.5t-18.5 -45.5v-277q0 -28 18.5 -46t45.5 -18h277q28 0 46 18t18 46v277q0 27 -18 45.5t-46 18.5h-277zM384 -128h-277
q-45 0 -76 31t-31 76v277q0 45 31 76t76 31h277q45 0 76 -31t31 -76v-277q0 -44 -31.5 -75.5t-75.5 -31.5zM107 320q-28 0 -46 -18.5t-18 -45.5v-277q0 -28 18 -46t46 -18h277q27 0 45.5 18t18.5 46v277q0 27 -18.5 45.5t-45.5 18.5h-277zM917 405h-277q-45 0 -76 31t-31 76
v277q0 45 31 76t76 31h277q45 0 76 -31t31 -76v-277q0 -44 -31 -75.5t-76 -31.5zM640 853q-27 0 -45.5 -18t-18.5 -46v-277q0 -27 18.5 -45.5t45.5 -18.5h277q28 0 46 18.5t18 45.5v277q0 28 -18 46t-46 18h-277zM384 405h-277q-45 0 -76 31t-31 76v277q0 45 31 76t76 31
h277q45 0 76 -31t31 -76v-277q0 -44 -31.5 -75.5t-75.5 -31.5zM107 853q-28 0 -46 -18t-18 -46v-277q0 -27 18 -45.5t46 -18.5h277q27 0 45.5 18.5t18.5 45.5v277q0 28 -18.5 46t-45.5 18h-277z" />
    <glyph glyph-name="jifenshangcheng-chakanquanbu" unicode="&#xe644;" 
d="M146 896v-1024l732 512z" />
    <glyph glyph-name="jifenshangcheng-shangpinfenlei" unicode="&#xe645;" 
d="M777 -128h-530q-50 0 -91 34.5t-48 83.5l-77 465q-9 54 25 97q28 35 89 35h734q61 0 89 -35q34 -41 25 -97l-77 -465q-7 -49 -48 -83.5t-91 -34.5zM145 548q-44 0 -60 -21q-24 -27 -17 -64l77 -465q6 -36 36 -61.5t66 -25.5h530q36 0 65.5 25t36.5 62l77 465q7 38 -15 66
q-18 21 -60 21h-736v-2zM299 355zM242 355q0 -24 16.5 -41t40.5 -17t41 17t17 41t-17 41t-41 17t-40.5 -17t-16.5 -41zM725 355zM667 355q0 -24 17 -41t41 -17t40.5 17t16.5 41t-16.5 41t-40.5 17t-41 -17t-17 -41zM796 624q-16 0 -19 15q-19 95 -94 156.5t-171 61.5
q-97 0 -172 -61.5t-93 -156.5q-1 -7 -7.5 -12t-15.5 -3q-7 1 -12 7.5t-3 15.5q21 108 107 178.5t196 70.5q111 0 197 -70.5t106 -178.5q2 -8 -2.5 -15t-12.5 -8h-4z" />
    <glyph glyph-name="sousuo-hei" unicode="&#xe646;" horiz-adv-x="1059" 
d="M992 -128q-27 29 -54 57l-174 174l-10 11l-113 112q-34 -27 -75 -49t-97.5 -36t-112 -11t-119 33.5t-117.5 89.5q-30 33 -50.5 71.5t-29 73.5t-11.5 69.5t-0.5 62.5t6.5 49.5t7 33.5t4 12q-3 1 -8 4t-16 11.5t-17 17t-4.5 20t15.5 21.5h15l59 74q3 3 7 5t15.5 -1
t22.5 -18q13 -18 15.5 -29t-0.5 -19t-15 -27q-12 -18 -23.5 -71t-11.5 -120.5t20 -105.5q16 -30 39.5 -59.5t64.5 -61t87 -46.5t110 -5t130 53q50 33 81 84.5t39 104.5t4.5 105.5t-17.5 92.5t-33 59q-2 2 -17.5 19t-20.5 22t-22 20.5t-27.5 21t-31 17t-37 14.5t-42 8
t-50.5 3t-57 -6.5t-66 -14.5q-23 -7 -30.5 2t0.5 28q5 3 13.5 7t35 14.5t54 17t68 8.5t78.5 -5t82.5 -28.5t84.5 -58.5q58 -53 86 -125t26.5 -143.5t-17 -133.5t-41.5 -110l116 -117l20 -20l143 -163q4 -4 38 3.5t48 -3.5z" />
    <glyph glyph-name="jifenshangcheng-paihangbang" unicode="&#xe647;" horiz-adv-x="1063" 
d="M906 -69h-59q-42 0 -70.5 28.5t-28.5 70.5v512q0 41 28.5 69.5t70.5 28.5h59q41 0 69.5 -28.5t28.5 -69.5v-512q0 -41 -28.5 -70t-69.5 -29zM847 601q-25 0 -42 -17t-17 -42v-512q0 -26 17 -43t42 -17h59q25 0 42 17t17 43v512q0 25 -17 42t-42 17h-59zM591 -69h-59
q-42 0 -70.5 28.5t-28.5 70.5v768q0 41 28.5 69.5t70.5 28.5h59q41 0 69.5 -28.5t28.5 -69.5v-768q0 -41 -28.5 -70t-69.5 -29zM532 857q-25 0 -42 -17t-17 -42v-768q0 -26 17 -43t42 -17h59q25 0 42 17t17 43v768q0 25 -17 42t-42 17h-59zM256 -69h-59q-41 0 -70 28.5
t-29 70.5v452q0 42 29 70.5t70 28.5h59q41 0 69.5 -28.5t28.5 -70.5v-452q0 -41 -28.5 -70t-69.5 -29zM197 542q-25 0 -42 -17t-17 -43v-452q0 -26 17 -43t42 -17h59q25 0 42 17t17 43v452q0 26 -17 43t-42 17h-59zM1044 -128h-1005q-8 0 -13.5 5.5t-5.5 14.5t5.5 14t13.5 5
h1005q9 0 14 -5t5 -14t-5 -14.5t-14 -5.5z" />
    <glyph glyph-name="jifenshangcheng-jifenchaxun" unicode="&#xe648;" 
d="M476 -56q-97 0 -185 38t-152 101.5t-101.5 151.5t-37.5 185t37.5 185t101.5 152t152 101.5t185 37.5t185 -37.5t151.5 -101.5t101.5 -152t38 -185t-38 -185t-101.5 -151.5t-151.5 -101.5t-185 -38zM475.5 856q-118.5 0 -218.5 -58.5t-158.5 -158.5t-58.5 -218.5
t58.5 -219t158.5 -159t218.5 -58.5t219 58.5t159 159t58.5 218.5t-58.5 218t-159 159t-219 59zM988 -128q-14 0 -24 10l-193 195q-4 4 -4.5 6.5t2.5 4t7 3t9.5 4t9.5 6.5q3 3 3 6q0 2 5 2l8 10q4 0 5.5 3t1.5 4t3 -1l193 -195q11 -10 11 -24.5t-11 -25.5q-16 -8 -26 -8z
M580 569q-11 -8 -18 0q-13 11 -40 19t-54 7q-45 -5 -68 -30q-18 -20 -14 -44q6 -39 74 -79q6 -4 22 -12q18 -9 29.5 -16t29.5 -18.5t27.5 -23.5t17 -26.5t5.5 -31.5t-13 -34q-27 -43 -90 -53h-4v-34q0 -10 -12 -10t-12 10v32q-62 4 -107 43q-7 7 2 16q11 7 18 0
q50 -44 113 -35q48 7 70 41q9 15 9 29.5t-7 26t-22.5 24t-30.5 21.5t-37 21l-24 12q-78 47 -87 93q-6 30 18 60q32 35 85 38v38q0 10 12 10t12 -10v-38q62 -6 92 -32q6 -2 7 -6.5t-3 -7.5zM474 173q-9 0 -15.5 6.5t-6.5 13.5v24q-59 7 -103 45q-6 6 -6 14t8 16q6 6 15 6
t15 -6q45 -39 105 -32q44 6 62 36q12 17 6 34q-8 30 -92 76l-6 4q-3 2 -9 5t-9 5q-82 48 -91 99q-6 38 20 68q27 32 83 42v28q0 9 6.5 14.5t15.5 5.5t15.5 -6t6.5 -14v-28q57 -6 88 -34q8 -6 8 -16q0 -9 -8 -14q-6 -6 -14.5 -5.5t-15.5 5.5q-12 10 -36.5 17.5t-49.5 6.5
q-39 0 -62 -26q-15 -18 -12 -36q5 -32 70 -71q6 -4 22 -12q23 -12 34 -19t31 -21t31.5 -29t15.5 -31q10 -31 -12 -64q-28 -47 -92 -57v-24q3 -11 -3 -18.5t-15 -7.5zM470 193h6v44h12q27 3 49.5 16t32.5 33q16 25 10 48q-1 6 -4 12t-6.5 10.5t-9.5 10.5t-10 9.5t-11.5 9
t-11.5 8.5t-13 8t-12.5 7t-12.5 7t-11 6q-16 8 -22 12q-71 42 -81 85q-6 27 17 52q24 29 76 34q29 1 58 -8t42 -20h4q-30 27 -86 30h-10v46h-2q-2 0 -4 -2v-46h-10q-50 -3 -77 -36q-19 -22 -16 -52q10 -44 83 -85q3 -2 9 -5t9 -5l6 -4q91 -47 102 -88q7 -26 -10 -48
q-24 -37 -78 -47q-65 -9 -121 37q-3 3 -6 0l-2 -2q45 -36 99 -39h10zM574 577l6 -8z" />
    <glyph glyph-name="jifenshangcheng-jianqu" unicode="&#xe649;" horiz-adv-x="5120" 
d="M205 -128q17 5 130 37t167.5 46.5t169.5 42t193.5 41.5t179 26t183.5 12h3887l-714 819l-514 -410h-3887z" />
    <glyph glyph-name="jifenshangcheng-zengjia" unicode="&#xe64a;" horiz-adv-x="1075" 
d="M563 384h512l-102 102l-51 -51h-359v256l51 103l-153 102q5 -131 2.5 -197t-7.5 -135.5t-5 -94.5l10 -34h-461l51 -102q41 11 64.5 22.5t30 16.5t31.5 8.5t79 3.5h205q0 -33 2.5 -118t2.5 -182t-5 -212l102 102q-5 100 -5.5 165t2 120t2.5 87z" />
    <glyph glyph-name="jifenshangcheng-xuanze" unicode="&#xe64b;" horiz-adv-x="1060" 
d="M405 -45l-6 -83l-207 71l102 104l-293 429l203 -31q10 -85 47 -174l88 -214q489 352 695 839l26 -6q-107 -510 -655 -935z" />
    <glyph glyph-name="jifenshangcheng-biaotizuo" unicode="&#xe64c;" horiz-adv-x="6277" 
d="M0 406h5432v-44h-5432v44zM6055 404q-15 0 -34.5 3.5t-44 13.5t-44.5 24.5t-32 40.5t-10 58q2 30 20.5 52t43.5 31t50.5 8.5t45 -15.5t24.5 -41q5 -32 -22 -42t-52 7q-8 5 -14 -9q-12 -24 17 -38q7 -3 15 -5q19 -3 40.5 -3.5t44 11t40.5 28.5t29.5 48.5t11.5 72.5
q-1 30 -12 57t-28 43.5t-37.5 28t-38.5 13t-31 -2.5q-15 -6 -24.5 -13t-12.5 -11.5t-7.5 -7.5t-10.5 -3q-14 1 -23.5 9.5t-15.5 20t-13 22t-21.5 16.5t-36.5 2q-24 -4 -47.5 -19t-43.5 -41.5t-25.5 -63.5t6.5 -85q-4 1 -10.5 2t-25 -0.5t-35.5 -8.5t-38.5 -28t-37.5 -53
q-8 -16 -13 -42.5t-12.5 -46t-26.5 -31.5h2v-44h-133v44h4q10 5 21 13.5t28.5 26t32.5 47.5t24 68q5 26 20.5 48t33.5 35t35 22.5t28 13.5l11 3q-1 5 -3 13.5t-0.5 32.5t10.5 46.5t35.5 50.5t67.5 49q50 25 95 20.5t73.5 -16.5t33.5 -21q5 2 14 4.5t36 5.5t52 1t57 -14.5
t57 -35t46.5 -66.5t30.5 -104q8 -51 -8.5 -94t-45 -69.5t-63 -46t-61.5 -27.5t-42 -8zM5615 240q16 -32 37 -52.5t39.5 -27t34.5 -9t26 -0.5l9 2q-12 -48 -6.5 -84.5t25.5 -63t43.5 -41.5t47.5 -19q22 -3 36.5 2.5t22 16.5t13 22t15 19.5t23.5 9.5q7 0 11 -3t7 -7.5
t12.5 -11.5t24.5 -13q14 -4 32 -2.5t38 13.5t37 28t28 42.5t12 57.5q0 39 -11.5 70.5t-29.5 48.5t-40.5 28.5t-44 11t-39.5 -2.5q-41 -11 -35 -38q3 -13 12 -15q3 -1 5 1q24 17 51 7t22 -42q-5 -26 -24.5 -41t-45 -15.5t-50.5 8.5t-43 31t-20 52q-3 32 9.5 57.5t32 40
t44 24.5t44 13t34.5 3t42 -7.5t61.5 -27t63 -46t45 -69t8.5 -92.5q-28 -190 -172 -216q-64 -12 -121 8q-4 -9 -33 -21t-74 -16.5t-94 19.5q-115 57 -115 157q0 20 5 34v0q-5 1 -12 3.5t-27 12.5t-36 22.5t-32 35t-21 47.5q-8 35 -22 64t-29 45.5t-28.5 27.5t-22.5 15l-8 4
h128q21 -12 29 -31t13 -46t13 -44z" />
    <glyph glyph-name="jifenshangcheng-biaotiyou" unicode="&#xe64d;" horiz-adv-x="6277" 
d="M846 406h5432v-44h-5432v44zM712 362v44h3q-19 12 -27 31.5t-12.5 46t-12.5 42.5q-16 32 -37 53t-39.5 27.5t-35 9t-26.5 0.5l-9 -2q12 48 6.5 85t-25.5 63.5t-43.5 41.5t-47.5 19q-22 4 -36.5 -2t-22 -16.5t-13 -22t-15 -20t-23.5 -9.5q-7 0 -11 3t-7 7.5t-13 11.5
t-24 13q-14 4 -32 2.5t-38 -13t-37 -28t-28.5 -43.5t-11.5 -57q0 -41 11 -72.5t29.5 -48.5t41 -28.5t44 -11t39.5 3.5q41 10 35 37q-3 15 -13 16q-2 0 -4 -1q-24 -17 -51 -7t-22 42q5 26 24.5 41t45 15.5t50.5 -8.5t43 -31t20 -52q3 -32 -9.5 -58t-32 -40.5t-44.5 -24.5
t-44.5 -13.5t-34.5 -3.5t-42 8t-61.5 27.5t-63 46t-44.5 69.5t-9 94q9 60 30.5 104t46.5 66.5t57.5 35t57.5 14.5t51.5 -1t36 -5.5t14.5 -4.5v0q4 9 33 21t74 16.5t94 -20.5q42 -21 68.5 -48t35 -51.5t11 -45.5t-0.5 -34l-4 -13q5 -1 12.5 -3.5t27 -12.5t36 -22.5t32 -35
t21.5 -48.5q8 -38 23.5 -68t33 -47.5t28.5 -26t21 -13.5h4v-44h-134zM223 361q15 0 34.5 -3t44.5 -13t44.5 -24.5t31.5 -40t10 -57.5q-2 -30 -20.5 -52t-43.5 -31t-50.5 -8.5t-45 15.5t-23.5 41q-6 32 21 42t52 -7q8 -5 14 8q12 23 -15 37q-8 4 -17 7q-18 2 -39.5 2.5
t-44 -11t-41 -28.5t-30 -48.5t-10.5 -70.5q0 -31 11.5 -57.5t28.5 -42.5t37 -28t38 -13.5t31 2.5q15 6 24.5 13t12.5 11.5t7.5 7.5t10.5 3q14 -1 23.5 -9.5t15.5 -19.5t13 -22t21.5 -16.5t36.5 -2.5q24 4 47.5 19t43.5 41.5t25.5 63t-6.5 84.5q4 -1 10.5 -2t25 0.5t35.5 8.5
t38.5 27.5t37.5 52.5q8 17 12.5 44t13 46t29.5 31h128q-3 -1 -9 -4t-21.5 -15t-29 -27.5t-28 -45t-22.5 -64.5q-6 -25 -21.5 -47.5t-32 -35t-36 -22.5t-27 -12.5t-11.5 -3.5v0q1 -5 3 -13t0.5 -32.5t-10.5 -46.5t-35.5 -50t-67.5 -49q-50 -24 -95 -19.5t-73.5 16.5t-33.5 21
q-5 -2 -14 -4.5t-36 -5.5t-52 -1t-57 14t-57 34.5t-46.5 66.5t-30.5 104q-7 50 9 92.5t44.5 69t63 46t61.5 27t42 7.5z" />
    <glyph glyph-name="jifenshangcheng-gouwuche" unicode="&#xe64e;" horiz-adv-x="1097" 
d="M1048 774l-1 -816l-96 -37v73h-853v-73l-98 -49v1024l98 -98h853q-2 8 12.5 32.5t30.5 45.5l15 20q3 -8 25 -26t42 -32l21 -15v-29zM951 530h-463v-219h463v219zM951 262h-463l-49 -49l-49 73l49 31v213l-49 25l49 73l49 -49h463v171h-853v-707h853v219zM658 420l-61 -60
l-60 60l60 61z" />
    <glyph glyph-name="fenxiang-qq1" unicode="&#xe64f;" 
d="M512 896q139 0 257 -68.5t186.5 -186.5t68.5 -257t-68.5 -257t-186.5 -186.5t-257 -68.5t-257 68.5t-186.5 186.5t-68.5 257t68.5 257t186.5 186.5t257 68.5zM742 303l-1 9l-2 8l-1 4l-1 5l-2 4l-1 5l-2 5l-2 4l-4 8l-3 7l-3 6l-3 5l-3 5l-2 5l-5 7l-6 10l-2 2v1v1l1 3
l1 2l2 6v3v3l1 2v3l-1 2v3l-1 4l-1 5l-1 4l-2 4l-2 3l-1 3l-2 3l-3 4l-1 2v1l-1 9l-1 5l-1 7l-1 7l-2 8l-1 5l-1 4l-2 4l-1 5l-2 4l-2 5l-4 9l-2 5l-3 4l-3 5l-2 5l-4 4l-3 4l-4 5l-4 4l-4 4l-4 4l-3 1l-2 2l-5 4l-6 4l-6 3l-6 4l-7 2l-6 3l-7 3l-7 1l-7 2l-7 2l-6 1l-7 1
l-7 1l-7 1h-21h-7l-7 -1l-7 -1l-6 -1l-7 -2l-6 -1l-7 -2l-5 -2l-6 -2l-6 -3l-6 -2l-5 -3l-5 -3l-4 -4l-5 -3l-4 -4l-6 -6l-5 -5l-5 -5l-4 -5l-4 -5l-4 -6l-3 -5l-2 -2l-2 -3l-3 -5l-2 -5l-3 -4l-2 -5l-2 -5l-1 -4l-2 -4l-2 -5l-2 -7l-1 -7l-1 -6l-1 -6v-10l-1 -1l-1 -2
l-1 -2l-1 -2l-1 -5l-2 -4v-3v-3v-3l-3 -4l-2 -4l-2 -4l-1 -3l-1 -4v-3v-8v-2l1 -4l1 -2l-2 -1l-4 -4l-6 -5l-4 -3l-3 -3l-3 -3l-2 -2l-4 -4l-4 -5l-3 -4l-4 -6l-3 -5l-4 -5l-3 -6l-3 -5l-2 -5l-2 -6l-2 -5l-2 -5l-1 -5l-1 -5l-1 -5l-1 -5l-1 -4v-9v-12v-3l1 -6l1 -3l1 -3v-2
l1 -2l2 -3l1 -1v-2h1h1h4l3 1l3 2l3 2l3 2l3 2l3 3l2 2l2 3l2 3l2 2l2 3l2 4l1 2v1v1l1 1v0l1 1h1v-1v0h1l1 -6l1 -5l2 -4l2 -5l2 -4l2 -4l2 -4l2 -4l2 -3l2 -3l5 -6l4 -5l4 -4l4 -4l4 -2l5 -5l2 -1l1 -1v0l-1 -1v0h-1h-4l-4 -1h-3l-3 -1l-2 -1l-3 -1l-3 -1l-1 -1l-3 -1
l-1 -1l-2 -1l-2 -2l-2 -2l-1 -2l-1 -1l-1 -3l-1 -2l-1 -2v-2v-4v-2v-2l-1 -2v-2l1 -2v-2l1 -3l1 -1l1 -2l1 -2l1 -1l2 -1l1 -2l3 -2l4 -2l4 -2l4 -2l5 -2l5 -1l5 -2l5 -1l6 -1l5 -1l6 -1l12 -1h12h20h6l4 1h4h4l7 2l4 1l5 1l8 3l3 2l4 2l6 3l5 2l4 3l2 2h5h3l7 -1h6h2l2 -1
l3 -1l4 -2l7 -2l7 -2l7 -2l7 -2l7 -2l7 -1h8l7 -1l6 -1h7h20h6l6 1l6 1l6 1l5 1l5 1l3 1l2 1l5 1l4 2l3 2l4 2l3 3l1 1l2 2l2 2l2 3l1 1v2l1 1v2v1l1 2l-1 2v2l-1 3l-1 2l-1 2l-2 2l-1 2l-2 2l-4 3l-5 4l-5 3l-5 3l-11 5l-3 2l-1 1v0l5 6l3 2l2 3l4 6l3 5l3 5l3 5l4 10l3 8
l2 5l1 2l1 2l1 1h1v0l3 -6l2 -6l2 -3l2 -3l2 -3l2 -3l3 -3l1 -1l1 -1l1 -1l1 -1l2 -1h2h2h1l1 1l2 1l2 1l1 1l1 2l1 2l2 2l1 2l1 2l1 3l1 5l1 6l1 6l1 4v11l-1 7v0z" />
    <glyph glyph-name="bofang" unicode="&#xe650;" 
d="M512 896q-104 0 -198.5 -40.5t-163.5 -109.5t-109.5 -163.5t-40.5 -198.5t40.5 -198.5t109.5 -163.5t163.5 -109.5t198.5 -40.5t198.5 40.5t163.5 109.5t109.5 163.5t40.5 198.5t-40.5 198.5t-109.5 163.5t-163.5 109.5t-198.5 40.5zM512 -108q-100 0 -191 39t-157 105
t-105 157t-39 191t39 191t105 157t157 105t191 39t191 -39t157 -105t105 -157t39 -191t-39 -191t-105 -157t-157 -105t-191 -39zM512 836q-92 0 -175.5 -36t-144 -96.5t-96.5 -144t-36 -175.5t36 -175.5t96.5 -144t144 -96.5t175.5 -36t175.5 36t144 96.5t96.5 144t36 175.5
t-36 175.5t-96.5 144t-144 96.5t-175.5 36zM442 545v-342l-30 -20v402l61 -16zM592 545v-342l-30 -20v402l61 -16z" />
  </font>
</defs>
</svg>
